<?xml version="1.0" encoding="us-ascii" standalone="no"?><svg xmlns="http://www.w3.org/2000/svg" xmlns:xlink="http://www.w3.org/1999/xlink" contentStyleType="text/css" height="1232px" preserveAspectRatio="none" style="width:2218px;height:1232px;background:#FFFFFF;" version="1.1" viewBox="0 0 2218 1232" width="2218px" zoomAndPan="magnify"><defs/><g><text fill="#000000" font-family="sans-serif" font-size="14" font-weight="bold" lengthAdjust="spacing" textLength="215.8125" x="1001.3438" y="29.5332">kEmber &#36755;&#20837;&#21040;&#36755;&#20986;&#27969;&#27700;&#32447;&#26102;&#24207;&#22270;</text><text fill="#000000" font-family="sans-serif" font-size="14" lengthAdjust="spacing" textLength="336" x="941.25" y="1220.0957">&#20174;&#22330;&#26223;&#23548;&#20837;&#12289;&#37327;&#21270;&#12289;&#23616;&#37096;&#27714;&#35299;&#21040;&#32467;&#26524;&#23548;&#20986;&#30340;&#20027;&#25191;&#34892;&#36335;&#24452;</text><rect fill="#FFFFFF" height="73.7031" style="stroke:#181818;stroke-width:1.0;" width="10" x="451" y="244.625"/><rect fill="#FFFFFF" height="707.5703" style="stroke:#181818;stroke-width:1.0;" width="10" x="592" y="401.3828"/><rect fill="#FFFFFF" height="367.7031" style="stroke:#181818;stroke-width:1.0;" width="10" x="874" y="462.0859"/><rect fill="#FFFFFF" height="30.3516" style="stroke:#181818;stroke-width:1.0;" width="10" x="1079" y="586.4922"/><rect fill="#FFFFFF" height="121.4063" style="stroke:#181818;stroke-width:1.0;" width="10" x="1259" y="616.8438"/><rect fill="#FFFFFF" height="30.3516" style="stroke:#181818;stroke-width:1.0;" width="10" x="1473" y="647.1953"/><rect fill="#FFFFFF" height="30.3516" style="stroke:#181818;stroke-width:1.0;" width="10" x="1669.5" y="707.8984"/><rect fill="#FFFFFF" height="106.0547" style="stroke:#181818;stroke-width:1.0;" width="10" x="1817.5" y="911.8438"/><rect fill="#FFFFFF" height="60.7031" style="stroke:#181818;stroke-width:1.0;" width="10" x="2015.5" y="1017.8984"/><rect fill="none" height="352.7031" style="stroke:#000000;stroke-width:1.5;" width="1255.5" x="522" y="477.0859"/><rect fill="none" height="277" style="stroke:#000000;stroke-width:1.5;" width="1235.5" x="532" y="545.7891"/><rect fill="none" height="61.7031" style="stroke:#000000;stroke-width:1.5;" width="263" x="1757.5" y="926.8438"/><line style="stroke:#181818;stroke-width:0.5;stroke-dasharray:5.0,5.0;" x1="29" x2="29" y1="121.2188" y2="1126.9531"/><line style="stroke:#181818;stroke-width:0.5;stroke-dasharray:5.0,5.0;" x1="213.5" x2="213.5" y1="121.2188" y2="1126.9531"/><line style="stroke:#181818;stroke-width:0.5;stroke-dasharray:5.0,5.0;" x1="339" x2="339" y1="121.2188" y2="1126.9531"/><line style="stroke:#181818;stroke-width:0.5;stroke-dasharray:5.0,5.0;" x1="456" x2="456" y1="121.2188" y2="1126.9531"/><line style="stroke:#181818;stroke-width:0.5;stroke-dasharray:5.0,5.0;" x1="597" x2="597" y1="121.2188" y2="1126.9531"/><line style="stroke:#181818;stroke-width:0.5;stroke-dasharray:5.0,5.0;" x1="728" x2="728" y1="121.2188" y2="1126.9531"/><line style="stroke:#181818;stroke-width:0.5;stroke-dasharray:5.0,5.0;" x1="879" x2="879" y1="121.2188" y2="1126.9531"/><line style="stroke:#181818;stroke-width:0.5;stroke-dasharray:5.0,5.0;" x1="1084" x2="1084" y1="121.2188" y2="1126.9531"/><line style="stroke:#181818;stroke-width:0.5;stroke-dasharray:5.0,5.0;" x1="1264" x2="1264" y1="121.2188" y2="1126.9531"/><line style="stroke:#181818;stroke-width:0.5;stroke-dasharray:5.0,5.0;" x1="1477.5" x2="1477.5" y1="121.2188" y2="1126.9531"/><line style="stroke:#181818;stroke-width:0.5;stroke-dasharray:5.0,5.0;" x1="1674.5" x2="1674.5" y1="121.2188" y2="1126.9531"/><line style="stroke:#181818;stroke-width:0.5;stroke-dasharray:5.0,5.0;" x1="1822.5" x2="1822.5" y1="121.2188" y2="1126.9531"/><line style="stroke:#181818;stroke-width:0.5;stroke-dasharray:5.0,5.0;" x1="2020.5" x2="2020.5" y1="121.2188" y2="1126.9531"/><line style="stroke:#181818;stroke-width:0.5;stroke-dasharray:5.0,5.0;" x1="2183.5" x2="2183.5" y1="121.2188" y2="1126.9531"/><text fill="#000000" font-family="sans-serif" font-size="14" lengthAdjust="spacing" textLength="42" x="5" y="118.1426">&#35843;&#29992;&#26041;</text><ellipse cx="29" cy="52.1094" fill="#E2E2F0" rx="8" ry="8" style="stroke:#181818;stroke-width:0.5;"/><path d="M29,60.1094 L29,87.1094 M16,68.1094 L42,68.1094 M29,87.1094 L16,102.1094 M29,87.1094 L42,102.1094 " fill="none" style="stroke:#181818;stroke-width:0.5;"/><text fill="#000000" font-family="sans-serif" font-size="14" lengthAdjust="spacing" textLength="42" x="5" y="1140.4863">&#35843;&#29992;&#26041;</text><ellipse cx="29" cy="1152.0625" fill="#E2E2F0" rx="8" ry="8" style="stroke:#181818;stroke-width:0.5;"/><path d="M29,1160.0625 L29,1187.0625 M16,1168.0625 L42,1168.0625 M29,1187.0625 L16,1202.0625 M29,1187.0625 L42,1202.0625 " fill="none" style="stroke:#181818;stroke-width:0.5;"/><rect fill="#E2E2F0" height="49.2188" rx="2.5" ry="2.5" style="stroke:#181818;stroke-width:0.5;" width="109" x="159.5" y="71"/><text fill="#000000" font-family="sans-serif" font-size="14" lengthAdjust="spacing" textLength="56" x="166.5" y="92.5332">&#24212;&#29992;&#20837;&#21475;</text><text fill="#000000" font-family="sans-serif" font-size="14" lengthAdjust="spacing" textLength="95" x="166.5" y="110.1426">src/application/</text><rect fill="#E2E2F0" height="49.2188" rx="2.5" ry="2.5" style="stroke:#181818;stroke-width:0.5;" width="109" x="159.5" y="1125.9531"/><text fill="#000000" font-family="sans-serif" font-size="14" lengthAdjust="spacing" textLength="56" x="166.5" y="1147.4863">&#24212;&#29992;&#20837;&#21475;</text><text fill="#000000" font-family="sans-serif" font-size="14" lengthAdjust="spacing" textLength="95" x="166.5" y="1165.0957">src/application/</text><text fill="#000000" font-family="sans-serif" font-size="14" lengthAdjust="spacing" textLength="56" x="308" y="118.1426">&#36755;&#20837;&#22330;&#26223;</text><path d="M321,67.6094 C321,57.6094 339,57.6094 339,57.6094 C339,57.6094 357,57.6094 357,67.6094 L357,93.6094 C357,103.6094 339,103.6094 339,103.6094 C339,103.6094 321,103.6094 321,93.6094 L321,67.6094 " fill="#E2E2F0" style="stroke:#181818;stroke-width:1.5;"/><path d="M321,67.6094 C321,77.6094 339,77.6094 339,77.6094 C339,77.6094 357,77.6094 357,67.6094 " fill="none" style="stroke:#181818;stroke-width:1.5;"/><text fill="#000000" font-family="sans-serif" font-size="14" lengthAdjust="spacing" textLength="56" x="308" y="1140.4863">&#36755;&#20837;&#22330;&#26223;</text><path d="M321,1153.5625 C321,1143.5625 339,1143.5625 339,1143.5625 C339,1143.5625 357,1143.5625 357,1153.5625 L357,1179.5625 C357,1189.5625 339,1189.5625 339,1189.5625 C339,1189.5625 321,1189.5625 321,1179.5625 L321,1153.5625 " fill="#E2E2F0" style="stroke:#181818;stroke-width:1.5;"/><path d="M321,1153.5625 C321,1163.5625 339,1163.5625 339,1163.5625 C339,1163.5625 357,1163.5625 357,1153.5625 " fill="none" style="stroke:#181818;stroke-width:1.5;"/><rect fill="#E2E2F0" height="31.6094" rx="2.5" ry="2.5" style="stroke:#181818;stroke-width:0.5;" width="112" x="400" y="88.6094"/><text fill="#000000" font-family="sans-serif" font-size="14" lengthAdjust="spacing" textLength="98" x="407" y="110.1426">&#22330;&#26223;&#23548;&#20837;&#19982;&#37327;&#21270;</text><rect fill="#E2E2F0" height="31.6094" rx="2.5" ry="2.5" style="stroke:#181818;stroke-width:0.5;" width="112" x="400" y="1125.9531"/><text fill="#000000" font-family="sans-serif" font-size="14" lengthAdjust="spacing" textLength="98" x="407" y="1147.4863">&#22330;&#26223;&#23548;&#20837;&#19982;&#37327;&#21270;</text><rect fill="#E2E2F0" height="49.2188" rx="2.5" ry="2.5" style="stroke:#181818;stroke-width:0.5;" width="70" x="562" y="71"/><text fill="#000000" font-family="sans-serif" font-size="14" lengthAdjust="spacing" textLength="56" x="569" y="92.5332">&#24067;&#23572;&#24341;&#25806;</text><text fill="#000000" font-family="sans-serif" font-size="14" lengthAdjust="spacing" textLength="55" x="569" y="110.1426">src/core/</text><rect fill="#E2E2F0" height="49.2188" rx="2.5" ry="2.5" style="stroke:#181818;stroke-width:0.5;" width="70" x="562" y="1125.9531"/><text fill="#000000" font-family="sans-serif" font-size="14" lengthAdjust="spacing" textLength="56" x="569" y="1147.4863">&#24067;&#23572;&#24341;&#25806;</text><text fill="#000000" font-family="sans-serif" font-size="14" lengthAdjust="spacing" textLength="55" x="569" y="1165.0957">src/core/</text><rect fill="#E2E2F0" height="31.6094" rx="2.5" ry="2.5" style="stroke:#181818;stroke-width:0.5;" width="84" x="686" y="88.6094"/><text fill="#000000" font-family="sans-serif" font-size="14" lengthAdjust="spacing" textLength="70" x="693" y="110.1426">&#20219;&#21153;&#36816;&#34892;&#26102;</text><rect fill="#E2E2F0" height="31.6094" rx="2.5" ry="2.5" style="stroke:#181818;stroke-width:0.5;" width="84" x="686" y="1125.9531"/><text fill="#000000" font-family="sans-serif" font-size="14" lengthAdjust="spacing" textLength="70" x="693" y="1147.4863">&#20219;&#21153;&#36816;&#34892;&#26102;</text><rect fill="#E2E2F0" height="31.6094" rx="2.5" ry="2.5" style="stroke:#181818;stroke-width:0.5;" width="70" x="844" y="88.6094"/><text fill="#000000" font-family="sans-serif" font-size="14" lengthAdjust="spacing" textLength="56" x="851" y="110.1426">&#31354;&#38388;&#32454;&#20998;</text><rect fill="#E2E2F0" height="31.6094" rx="2.5" ry="2.5" style="stroke:#181818;stroke-width:0.5;" width="70" x="844" y="1125.9531"/><text fill="#000000" font-family="sans-serif" font-size="14" lengthAdjust="spacing" textLength="56" x="851" y="1147.4863">&#31354;&#38388;&#32454;&#20998;</text><rect fill="#E2E2F0" height="31.6094" rx="2.5" ry="2.5" style="stroke:#181818;stroke-width:0.5;" width="84" x="1042" y="88.6094"/><text fill="#000000" font-family="sans-serif" font-size="14" lengthAdjust="spacing" textLength="70" x="1049" y="110.1426">&#21442;&#32771;&#28857;&#20256;&#25773;</text><rect fill="#E2E2F0" height="31.6094" rx="2.5" ry="2.5" style="stroke:#181818;stroke-width:0.5;" width="84" x="1042" y="1125.9531"/><text fill="#000000" font-family="sans-serif" font-size="14" lengthAdjust="spacing" textLength="70" x="1049" y="1147.4863">&#21442;&#32771;&#28857;&#20256;&#25773;</text><rect fill="#E2E2F0" height="31.6094" rx="2.5" ry="2.5" style="stroke:#181818;stroke-width:0.5;" width="98" x="1215" y="88.6094"/><text fill="#000000" font-family="sans-serif" font-size="14" lengthAdjust="spacing" textLength="84" x="1222" y="110.1426">&#21494;&#23376;&#23616;&#37096;&#27714;&#35299;</text><rect fill="#E2E2F0" height="31.6094" rx="2.5" ry="2.5" style="stroke:#181818;stroke-width:0.5;" width="98" x="1215" y="1125.9531"/><text fill="#000000" font-family="sans-serif" font-size="14" lengthAdjust="spacing" textLength="84" x="1222" y="1147.4863">&#21494;&#23376;&#23616;&#37096;&#27714;&#35299;</text><rect fill="#E2E2F0" height="31.6094" rx="2.5" ry="2.5" style="stroke:#181818;stroke-width:0.5;" width="167" x="1394.5" y="88.6094"/><text fill="#000000" font-family="sans-serif" font-size="14" lengthAdjust="spacing" textLength="153" x="1401.5" y="110.1426">&#23616;&#37096; BSP / Arrangement</text><rect fill="#E2E2F0" height="31.6094" rx="2.5" ry="2.5" style="stroke:#181818;stroke-width:0.5;" width="167" x="1394.5" y="1125.9531"/><text fill="#000000" font-family="sans-serif" font-size="14" lengthAdjust="spacing" textLength="153" x="1401.5" y="1147.4863">&#23616;&#37096; BSP / Arrangement</text><rect fill="#E2E2F0" height="31.6094" rx="2.5" ry="2.5" style="stroke:#181818;stroke-width:0.5;" width="126" x="1611.5" y="88.6094"/><text fill="#000000" font-family="sans-serif" font-size="14" lengthAdjust="spacing" textLength="112" x="1618.5" y="110.1426">&#38754;&#20998;&#31867;&#19982;&#24067;&#23572;&#21028;&#23450;</text><rect fill="#E2E2F0" height="31.6094" rx="2.5" ry="2.5" style="stroke:#181818;stroke-width:0.5;" width="126" x="1611.5" y="1125.9531"/><text fill="#000000" font-family="sans-serif" font-size="14" lengthAdjust="spacing" textLength="112" x="1618.5" y="1147.4863">&#38754;&#20998;&#31867;&#19982;&#24067;&#23572;&#21028;&#23450;</text><rect fill="#E2E2F0" height="31.6094" rx="2.5" ry="2.5" style="stroke:#181818;stroke-width:0.5;" width="70" x="1787.5" y="88.6094"/><text fill="#000000" font-family="sans-serif" font-size="14" lengthAdjust="spacing" textLength="56" x="1794.5" y="110.1426">&#32467;&#26524;&#32452;&#35013;</text><rect fill="#E2E2F0" height="31.6094" rx="2.5" ry="2.5" style="stroke:#181818;stroke-width:0.5;" width="70" x="1787.5" y="1125.9531"/><text fill="#000000" font-family="sans-serif" font-size="14" lengthAdjust="spacing" textLength="56" x="1794.5" y="1147.4863">&#32467;&#26524;&#32452;&#35013;</text><rect fill="#E2E2F0" height="31.6094" rx="2.5" ry="2.5" style="stroke:#181818;stroke-width:0.5;" width="70" x="1985.5" y="88.6094"/><text fill="#000000" font-family="sans-serif" font-size="14" lengthAdjust="spacing" textLength="56" x="1992.5" y="110.1426">&#32467;&#26524;&#23548;&#20986;</text><rect fill="#E2E2F0" height="31.6094" rx="2.5" ry="2.5" style="stroke:#181818;stroke-width:0.5;" width="70" x="1985.5" y="1125.9531"/><text fill="#000000" font-family="sans-serif" font-size="14" lengthAdjust="spacing" textLength="56" x="1992.5" y="1147.4863">&#32467;&#26524;&#23548;&#20986;</text><text fill="#000000" font-family="sans-serif" font-size="14" lengthAdjust="spacing" textLength="56" x="2152.5" y="118.1426">&#36755;&#20986;&#32467;&#26524;</text><path d="M2165.5,67.6094 C2165.5,57.6094 2183.5,57.6094 2183.5,57.6094 C2183.5,57.6094 2201.5,57.6094 2201.5,67.6094 L2201.5,93.6094 C2201.5,103.6094 2183.5,103.6094 2183.5,103.6094 C2183.5,103.6094 2165.5,103.6094 2165.5,93.6094 L2165.5,67.6094 " fill="#E2E2F0" style="stroke:#181818;stroke-width:1.5;"/><path d="M2165.5,67.6094 C2165.5,77.6094 2183.5,77.6094 2183.5,77.6094 C2183.5,77.6094 2201.5,77.6094 2201.5,67.6094 " fill="none" style="stroke:#181818;stroke-width:1.5;"/><text fill="#000000" font-family="sans-serif" font-size="14" lengthAdjust="spacing" textLength="56" x="2152.5" y="1140.4863">&#36755;&#20986;&#32467;&#26524;</text><path d="M2165.5,1153.5625 C2165.5,1143.5625 2183.5,1143.5625 2183.5,1143.5625 C2183.5,1143.5625 2201.5,1143.5625 2201.5,1153.5625 L2201.5,1179.5625 C2201.5,1189.5625 2183.5,1189.5625 2183.5,1189.5625 C2183.5,1189.5625 2165.5,1189.5625 2165.5,1179.5625 L2165.5,1153.5625 " fill="#E2E2F0" style="stroke:#181818;stroke-width:1.5;"/><path d="M2165.5,1153.5625 C2165.5,1163.5625 2183.5,1163.5625 2183.5,1163.5625 C2183.5,1163.5625 2201.5,1163.5625 2201.5,1153.5625 " fill="none" style="stroke:#181818;stroke-width:1.5;"/><rect fill="#FFFFFF" height="73.7031" style="stroke:#181818;stroke-width:1.0;" width="10" x="451" y="244.625"/><rect fill="#FFFFFF" height="707.5703" style="stroke:#181818;stroke-width:1.0;" width="10" x="592" y="401.3828"/><rect fill="#FFFFFF" height="367.7031" style="stroke:#181818;stroke-width:1.0;" width="10" x="874" y="462.0859"/><rect fill="#FFFFFF" height="30.3516" style="stroke:#181818;stroke-width:1.0;" width="10" x="1079" y="586.4922"/><rect fill="#FFFFFF" height="121.4063" style="stroke:#181818;stroke-width:1.0;" width="10" x="1259" y="616.8438"/><rect fill="#FFFFFF" height="30.3516" style="stroke:#181818;stroke-width:1.0;" width="10" x="1473" y="647.1953"/><rect fill="#FFFFFF" height="30.3516" style="stroke:#181818;stroke-width:1.0;" width="10" x="1669.5" y="707.8984"/><rect fill="#FFFFFF" height="106.0547" style="stroke:#181818;stroke-width:1.0;" width="10" x="1817.5" y="911.8438"/><rect fill="#FFFFFF" height="60.7031" style="stroke:#181818;stroke-width:1.0;" width="10" x="2015.5" y="1017.8984"/><polygon fill="#181818" points="202,149.5703,212,153.5703,202,157.5703,206,153.5703" style="stroke:#181818;stroke-width:1.0;"/><line style="stroke:#181818;stroke-width:1.0;" x1="29" x2="208" y1="153.5703" y2="153.5703"/><text fill="#000000" font-family="sans-serif" font-size="13" font-weight="bold" lengthAdjust="spacing" textLength="7" x="44.5" y="148.7139">1</text><text fill="#000000" font-family="sans-serif" font-size="13" lengthAdjust="spacing" textLength="143" x="55.5" y="148.7139">&#25552;&#20132;&#36755;&#20837;&#32593;&#26684;&#19982;&#24067;&#23572;&#34920;&#36798;</text><polygon fill="#181818" points="327,179.9219,337,183.9219,327,187.9219,331,183.9219" style="stroke:#181818;stroke-width:1.0;"/><line style="stroke:#181818;stroke-width:1.0;" x1="214" x2="333" y1="183.9219" y2="183.9219"/><text fill="#000000" font-family="sans-serif" font-size="13" font-weight="bold" lengthAdjust="spacing" textLength="7" x="232" y="179.0654">2</text><text fill="#000000" font-family="sans-serif" font-size="13" lengthAdjust="spacing" textLength="78" x="243" y="179.0654">&#35835;&#21462;&#22330;&#26223;&#25968;&#25454;</text><polygon fill="#181818" points="225,210.2734,215,214.2734,225,218.2734,221,214.2734" style="stroke:#181818;stroke-width:1.0;"/><line style="stroke:#181818;stroke-width:1.0;stroke-dasharray:2.0,2.0;" x1="219" x2="338" y1="214.2734" y2="214.2734"/><text fill="#000000" font-family="sans-serif" font-size="13" font-weight="bold" lengthAdjust="spacing" textLength="7" x="226" y="209.417">3</text><text fill="#000000" font-family="sans-serif" font-size="13" lengthAdjust="spacing" textLength="90" x="237" y="209.417">&#21407;&#22987;&#32593;&#26684; / &#37197;&#32622;</text><polygon fill="#181818" points="439,240.625,449,244.625,439,248.625,443,244.625" style="stroke:#181818;stroke-width:1.0;"/><line style="stroke:#181818;stroke-width:1.0;" x1="214" x2="445" y1="244.625" y2="244.625"/><text fill="#000000" font-family="sans-serif" font-size="13" font-weight="bold" lengthAdjust="spacing" textLength="7" x="294.5" y="239.7686">4</text><text fill="#000000" font-family="sans-serif" font-size="13" lengthAdjust="spacing" textLength="65" x="305.5" y="239.7686">&#23548;&#20837;&#24182;&#37327;&#21270;</text><line style="stroke:#181818;stroke-width:1.0;" x1="461" x2="503" y1="274.9766" y2="274.9766"/><line style="stroke:#181818;stroke-width:1.0;" x1="503" x2="503" y1="274.9766" y2="287.9766"/><line style="stroke:#181818;stroke-width:1.0;" x1="462" x2="503" y1="287.9766" y2="287.9766"/><polygon fill="#181818" points="472,283.9766,462,287.9766,472,291.9766,468,287.9766" style="stroke:#181818;stroke-width:1.0;"/><text fill="#000000" font-family="sans-serif" font-size="13" font-weight="bold" lengthAdjust="spacing" textLength="7" x="468" y="270.1201">5</text><text fill="#000000" font-family="sans-serif" font-size="13" lengthAdjust="spacing" textLength="104" x="479" y="270.1201">&#22352;&#26631;&#32553;&#25918;&#19982;&#25972;&#25968;&#21270;</text><polygon fill="#181818" points="225,314.3281,215,318.3281,225,322.3281,221,318.3281" style="stroke:#181818;stroke-width:1.0;"/><line style="stroke:#181818;stroke-width:1.0;stroke-dasharray:2.0,2.0;" x1="219" x2="455" y1="318.3281" y2="318.3281"/><text fill="#000000" font-family="sans-serif" font-size="13" font-weight="bold" lengthAdjust="spacing" textLength="7" x="276" y="313.4717">6</text><text fill="#000000" font-family="sans-serif" font-size="13" lengthAdjust="spacing" textLength="107" x="287" y="313.4717">&#36755;&#20837; polygon soup</text><path d="M393,331.3281 L393,373.3281 L660,373.3281 L660,341.3281 L650,331.3281 L393,331.3281 " fill="#FEFFDD" style="stroke:#181818;stroke-width:0.5;"/><path d="M650,331.3281 L650,341.3281 L660,341.3281 L650,331.3281 " fill="#FEFFDD" style="stroke:#181818;stroke-width:0.5;"/><text fill="#000000" font-family="sans-serif" font-size="13" lengthAdjust="spacing" textLength="215" x="399" y="349.8232">&#20174;&#37327;&#21270;&#21518;&#30340;&#25972;&#25968; polygon soup &#24320;&#22987;&#65292;</text><text fill="#000000" font-family="sans-serif" font-size="13" lengthAdjust="spacing" textLength="224" x="399" y="366.1748">&#20869;&#37096;&#27969;&#31243;&#36827;&#20837; EMBER &#30340;&#31934;&#30830;&#25972;&#25968;&#22495;&#12290;</text><polygon fill="#181818" points="580,397.3828,590,401.3828,580,405.3828,584,401.3828" style="stroke:#181818;stroke-width:1.0;"/><line style="stroke:#181818;stroke-width:1.0;" x1="214" x2="586" y1="401.3828" y2="401.3828"/><text fill="#000000" font-family="sans-serif" font-size="13" font-weight="bold" lengthAdjust="spacing" textLength="7" x="339" y="396.5264">7</text><text fill="#000000" font-family="sans-serif" font-size="13" lengthAdjust="spacing" textLength="117" x="350" y="396.5264">&#21019;&#24314;&#24182;&#21551;&#21160;&#24067;&#23572;&#20316;&#19994;</text><polygon fill="#181818" points="716,427.7344,726,431.7344,716,435.7344,720,431.7344" style="stroke:#181818;stroke-width:1.0;"/><line style="stroke:#181818;stroke-width:1.0;" x1="602" x2="722" y1="431.7344" y2="431.7344"/><text fill="#000000" font-family="sans-serif" font-size="13" font-weight="bold" lengthAdjust="spacing" textLength="7" x="614" y="426.8779">8</text><text fill="#000000" font-family="sans-serif" font-size="13" lengthAdjust="spacing" textLength="91" x="625" y="426.8779">&#24314;&#31435;&#20219;&#21153;&#19978;&#19979;&#25991;</text><polygon fill="#181818" points="862,458.0859,872,462.0859,862,466.0859,866,462.0859" style="stroke:#181818;stroke-width:1.0;"/><line style="stroke:#181818;stroke-width:1.0;" x1="602" x2="868" y1="462.0859" y2="462.0859"/><text fill="#000000" font-family="sans-serif" font-size="13" font-weight="bold" lengthAdjust="spacing" textLength="7" x="687" y="457.2295">9</text><text fill="#000000" font-family="sans-serif" font-size="13" lengthAdjust="spacing" textLength="91" x="698" y="457.2295">&#21551;&#21160;&#39030;&#23618;&#23376;&#38382;&#39064;</text><path d="M522,477.0859 L595,477.0859 L595,485.4375 L585,495.4375 L522,495.4375 L522,477.0859 " fill="#EEEEEE" style="stroke:#000000;stroke-width:1.5;"/><rect fill="none" height="352.7031" style="stroke:#000000;stroke-width:1.5;" width="1255.5" x="522" y="477.0859"/><text fill="#000000" font-family="sans-serif" font-size="13" font-weight="bold" lengthAdjust="spacing" textLength="28" x="537" y="491.5811">loop</text><text fill="#000000" font-family="sans-serif" font-size="11" font-weight="bold" lengthAdjust="spacing" textLength="132.7813" x="610" y="490.5049">[&#30452;&#21040;&#25152;&#26377;&#23376;&#38382;&#39064;&#22788;&#29702;&#23436;&#25104;]</text><line style="stroke:#181818;stroke-width:1.0;" x1="884" x2="926" y1="517.7891" y2="517.7891"/><line style="stroke:#181818;stroke-width:1.0;" x1="926" x2="926" y1="517.7891" y2="530.7891"/><line style="stroke:#181818;stroke-width:1.0;" x1="885" x2="926" y1="530.7891" y2="530.7891"/><polygon fill="#181818" points="895,526.7891,885,530.7891,895,534.7891,891,530.7891" style="stroke:#181818;stroke-width:1.0;"/><text fill="#000000" font-family="sans-serif" font-size="13" font-weight="bold" lengthAdjust="spacing" textLength="14" x="891" y="512.9326">10</text><text fill="#000000" font-family="sans-serif" font-size="13" lengthAdjust="spacing" textLength="163" x="909" y="512.9326">AABB &#20998;&#21106;&#19982; early-out &#26816;&#26597;</text><path d="M532,545.7891 L593,545.7891 L593,554.1406 L583,564.1406 L532,564.1406 L532,545.7891 " fill="#EEEEEE" style="stroke:#000000;stroke-width:1.5;"/><rect fill="none" height="277" style="stroke:#000000;stroke-width:1.5;" width="1235.5" x="532" y="545.7891"/><text fill="#000000" font-family="sans-serif" font-size="13" font-weight="bold" lengthAdjust="spacing" textLength="16" x="547" y="560.2842">alt</text><text fill="#000000" font-family="sans-serif" font-size="11" font-weight="bold" lengthAdjust="spacing" textLength="87.4063" x="608" y="559.208">[&#21040;&#36798;&#21494;&#23376;&#23376;&#38382;&#39064;]</text><polygon fill="#181818" points="1067,582.4922,1077,586.4922,1067,590.4922,1071,586.4922" style="stroke:#181818;stroke-width:1.0;"/><line style="stroke:#181818;stroke-width:1.0;" x1="884" x2="1073" y1="586.4922" y2="586.4922"/><text fill="#000000" font-family="sans-serif" font-size="13" font-weight="bold" lengthAdjust="spacing" textLength="14" x="896.5" y="581.6357">11</text><text fill="#000000" font-family="sans-serif" font-size="13" lengthAdjust="spacing" textLength="152" x="914.5" y="581.6357">&#20934;&#22791;&#23616;&#37096; reference / WNV</text><polygon fill="#181818" points="1247,612.8438,1257,616.8438,1247,620.8438,1251,616.8438" style="stroke:#181818;stroke-width:1.0;"/><line style="stroke:#181818;stroke-width:1.0;stroke-dasharray:2.0,2.0;" x1="1084" x2="1253" y1="616.8438" y2="616.8438"/><text fill="#000000" font-family="sans-serif" font-size="13" font-weight="bold" lengthAdjust="spacing" textLength="14" x="1096" y="611.9873">12</text><text fill="#000000" font-family="sans-serif" font-size="13" lengthAdjust="spacing" textLength="133" x="1114" y="611.9873">&#21494;&#23376;&#23376;&#38382;&#39064; + &#23616;&#37096;&#29366;&#24577;</text><polygon fill="#181818" points="1461,643.1953,1471,647.1953,1461,651.1953,1465,647.1953" style="stroke:#181818;stroke-width:1.0;"/><line style="stroke:#181818;stroke-width:1.0;" x1="1269" x2="1467" y1="647.1953" y2="647.1953"/><text fill="#000000" font-family="sans-serif" font-size="13" font-weight="bold" lengthAdjust="spacing" textLength="14" x="1278.5" y="642.3389">13</text><text fill="#000000" font-family="sans-serif" font-size="13" lengthAdjust="spacing" textLength="167" x="1296.5" y="642.3389">&#26500;&#24314;&#23616;&#37096; BSP / arrangement</text><polygon fill="#181818" points="1280,673.5469,1270,677.5469,1280,681.5469,1276,677.5469" style="stroke:#181818;stroke-width:1.0;"/><line style="stroke:#181818;stroke-width:1.0;stroke-dasharray:2.0,2.0;" x1="1274" x2="1477" y1="677.5469" y2="677.5469"/><text fill="#000000" font-family="sans-serif" font-size="13" font-weight="bold" lengthAdjust="spacing" textLength="14" x="1319" y="672.6904">14</text><text fill="#000000" font-family="sans-serif" font-size="13" lengthAdjust="spacing" textLength="91" x="1337" y="672.6904">&#20114;&#19981;&#37325;&#21472;&#23616;&#37096;&#38754;</text><polygon fill="#181818" points="1657.5,703.8984,1667.5,707.8984,1657.5,711.8984,1661.5,707.8984" style="stroke:#181818;stroke-width:1.0;"/><line style="stroke:#181818;stroke-width:1.0;" x1="1269" x2="1663.5" y1="707.8984" y2="707.8984"/><text fill="#000000" font-family="sans-serif" font-size="13" font-weight="bold" lengthAdjust="spacing" textLength="14" x="1372.75" y="703.042">15</text><text fill="#000000" font-family="sans-serif" font-size="13" lengthAdjust="spacing" textLength="175" x="1390.75" y="703.042">segment tracing &#19982; WNV &#21028;&#23450;</text><polygon fill="#181818" points="613,734.25,603,738.25,613,742.25,609,738.25" style="stroke:#181818;stroke-width:1.0;"/><line style="stroke:#181818;stroke-width:1.0;stroke-dasharray:2.0,2.0;" x1="607" x2="1673.5" y1="738.25" y2="738.25"/><text fill="#000000" font-family="sans-serif" font-size="13" font-weight="bold" lengthAdjust="spacing" textLength="14" x="1083.75" y="733.3936">16</text><text fill="#000000" font-family="sans-serif" font-size="13" lengthAdjust="spacing" textLength="91" x="1101.75" y="733.3936">&#20998;&#31867;&#21518;&#30340;&#36755;&#20986;&#38754;</text><line style="stroke:#000000;stroke-width:1.0;stroke-dasharray:2.0,2.0;" x1="532" x2="1767.5" y1="747.25" y2="747.25"/><text fill="#000000" font-family="sans-serif" font-size="11" font-weight="bold" lengthAdjust="spacing" textLength="53.375" x="537" y="758.6689">[&#32487;&#32493;&#32454;&#20998;]</text><polygon fill="#181818" points="739,780.4375,729,784.4375,739,788.4375,735,784.4375" style="stroke:#181818;stroke-width:1.0;"/><line style="stroke:#181818;stroke-width:1.0;" x1="733" x2="873" y1="784.4375" y2="784.4375"/><text fill="#000000" font-family="sans-serif" font-size="13" font-weight="bold" lengthAdjust="spacing" textLength="14" x="746.5" y="779.5811">17</text><text fill="#000000" font-family="sans-serif" font-size="13" lengthAdjust="spacing" textLength="91" x="764.5" y="779.5811">&#27966;&#21457;&#26032;&#30340;&#23376;&#38382;&#39064;</text><polygon fill="#181818" points="862,810.7891,872,814.7891,862,818.7891,866,814.7891" style="stroke:#181818;stroke-width:1.0;"/><line style="stroke:#181818;stroke-width:1.0;" x1="728" x2="868" y1="814.7891" y2="814.7891"/><text fill="#000000" font-family="sans-serif" font-size="13" font-weight="bold" lengthAdjust="spacing" textLength="14" x="740" y="809.9326">18</text><text fill="#000000" font-family="sans-serif" font-size="13" lengthAdjust="spacing" textLength="104" x="758" y="809.9326">&#35843;&#24230;&#19979;&#19968;&#20010;&#23376;&#38382;&#39064;</text><path d="M812,841.7891 L812,883.7891 L1740,883.7891 L1740,851.7891 L1730,841.7891 L812,841.7891 " fill="#FEFFDD" style="stroke:#181818;stroke-width:0.5;"/><path d="M1730,841.7891 L1730,851.7891 L1740,851.7891 L1730,841.7891 " fill="#FEFFDD" style="stroke:#181818;stroke-width:0.5;"/><text fill="#000000" font-family="sans-serif" font-size="13" lengthAdjust="spacing" textLength="169" x="818" y="860.2842">&#21494;&#23376;&#38454;&#27573;&#21482;&#22788;&#29702;&#23616;&#37096;&#23376;&#38382;&#39064;&#65292;</text><text fill="#000000" font-family="sans-serif" font-size="13" lengthAdjust="spacing" textLength="275" x="818" y="876.6357">&#36991;&#20813;&#20808;&#26500;&#24314;&#20840;&#23616; arrangement &#25110;&#20840;&#23616;&#21152;&#36895;&#32467;&#26500;&#12290;</text><polygon fill="#181818" points="1805.5,907.8438,1815.5,911.8438,1805.5,915.8438,1809.5,911.8438" style="stroke:#181818;stroke-width:1.0;"/><line style="stroke:#181818;stroke-width:1.0;" x1="602" x2="1811.5" y1="911.8438" y2="911.8438"/><text fill="#000000" font-family="sans-serif" font-size="13" font-weight="bold" lengthAdjust="spacing" textLength="14" x="1135.75" y="906.9873">19</text><text fill="#000000" font-family="sans-serif" font-size="13" lengthAdjust="spacing" textLength="130" x="1153.75" y="906.9873">&#27719;&#24635;&#24182;&#32452;&#35013;&#20840;&#37096;&#36755;&#20986;&#38754;</text><path d="M1757.5,926.8438 L1822.5,926.8438 L1822.5,935.1953 L1812.5,945.1953 L1757.5,945.1953 L1757.5,926.8438 " fill="#EEEEEE" style="stroke:#000000;stroke-width:1.5;"/><rect fill="none" height="61.7031" style="stroke:#000000;stroke-width:1.5;" width="263" x="1757.5" y="926.8438"/><text fill="#000000" font-family="sans-serif" font-size="13" font-weight="bold" lengthAdjust="spacing" textLength="20" x="1772.5" y="941.3389">opt</text><text fill="#000000" font-family="sans-serif" font-size="11" font-weight="bold" lengthAdjust="spacing" textLength="132.7813" x="1837.5" y="940.2627">[&#38656;&#35201;&#25299;&#25169;&#24674;&#22797;&#25110;&#32479;&#19968;&#26397;&#21521;]</text><line style="stroke:#181818;stroke-width:1.0;" x1="1827.5" x2="1869.5" y1="967.5469" y2="967.5469"/><line style="stroke:#181818;stroke-width:1.0;" x1="1869.5" x2="1869.5" y1="967.5469" y2="980.5469"/><line style="stroke:#181818;stroke-width:1.0;" x1="1828.5" x2="1869.5" y1="980.5469" y2="980.5469"/><polygon fill="#181818" points="1838.5,976.5469,1828.5,980.5469,1838.5,984.5469,1834.5,980.5469" style="stroke:#181818;stroke-width:1.0;"/><text fill="#000000" font-family="sans-serif" font-size="13" font-weight="bold" lengthAdjust="spacing" textLength="14" x="1834.5" y="962.6904">20</text><text fill="#000000" font-family="sans-serif" font-size="13" lengthAdjust="spacing" textLength="156" x="1852.5" y="962.6904">&#24674;&#22797; mesh &#25299;&#25169; / &#20462;&#27491;&#26397;&#21521;</text><polygon fill="#181818" points="2003.5,1013.8984,2013.5,1017.8984,2003.5,1021.8984,2007.5,1017.8984" style="stroke:#181818;stroke-width:1.0;"/><line style="stroke:#181818;stroke-width:1.0;" x1="1822.5" x2="2009.5" y1="1017.8984" y2="1017.8984"/><text fill="#000000" font-family="sans-serif" font-size="13" font-weight="bold" lengthAdjust="spacing" textLength="14" x="1838.5" y="1013.042">21</text><text fill="#000000" font-family="sans-serif" font-size="13" lengthAdjust="spacing" textLength="143" x="1856.5" y="1013.042">&#23548;&#20986;&#32467;&#26524;&#26354;&#38754;&#19982;&#35843;&#35797;&#25968;&#25454;</text><polygon fill="#181818" points="2171.5,1044.25,2181.5,1048.25,2171.5,1052.25,2175.5,1048.25" style="stroke:#181818;stroke-width:1.0;"/><line style="stroke:#181818;stroke-width:1.0;" x1="2025.5" x2="2177.5" y1="1048.25" y2="1048.25"/><text fill="#000000" font-family="sans-serif" font-size="13" font-weight="bold" lengthAdjust="spacing" textLength="14" x="2037.5" y="1043.3936">22</text><text fill="#000000" font-family="sans-serif" font-size="13" lengthAdjust="spacing" textLength="116" x="2055.5" y="1043.3936">&#20889;&#20986;&#25991;&#20214; / &#35843;&#35797;&#20135;&#29289;</text><polygon fill="#181818" points="225,1074.6016,215,1078.6016,225,1082.6016,221,1078.6016" style="stroke:#181818;stroke-width:1.0;"/><line style="stroke:#181818;stroke-width:1.0;stroke-dasharray:2.0,2.0;" x1="219" x2="2019.5" y1="1078.6016" y2="1078.6016"/><text fill="#000000" font-family="sans-serif" font-size="13" font-weight="bold" lengthAdjust="spacing" textLength="14" x="1069.25" y="1073.7451">23</text><text fill="#000000" font-family="sans-serif" font-size="13" lengthAdjust="spacing" textLength="78" x="1087.25" y="1073.7451">&#36820;&#22238;&#25191;&#34892;&#32467;&#26524;</text><polygon fill="#181818" points="40,1104.9531,30,1108.9531,40,1112.9531,36,1108.9531" style="stroke:#181818;stroke-width:1.0;"/><line style="stroke:#181818;stroke-width:1.0;stroke-dasharray:2.0,2.0;" x1="34" x2="213" y1="1108.9531" y2="1108.9531"/><text fill="#000000" font-family="sans-serif" font-size="13" font-weight="bold" lengthAdjust="spacing" textLength="14" x="41" y="1104.0967">24</text><text fill="#000000" font-family="sans-serif" font-size="13" lengthAdjust="spacing" textLength="143" x="59" y="1104.0967">&#36820;&#22238;&#32467;&#26524;&#20301;&#32622;&#19982;&#36816;&#34892;&#29366;&#24577;</text><!--SRC=[TLVBKXj75DtFLtHv6rDsiimYLU0YLQwA4yhEOvDD8pNob4SpavcHRNOIe0TF2GFo0sp0O8ETGe0BAx96Y8_nT8-qoY_aTlSWzKZAJZLzxxcFFlVSbgTx1a6F9jFJn46TzWRDlwEbC_wZs6IVS-pi8cnUiUTrsYpJxRQMmBQdMoOA_3MwqsGlJ-bf2ro-PdFTOfckLE47FSzsvu_P-Lpdw02WGd-3lTdXPiLc-6eXQFXiyQYplzBvvvIs5pGDPppBpF3mclj8Dstiu3IQneb7ASVAcCaxbc4vwCb3tIFAkViG9wqdkfb2CzXmrPCacS4Pm_kLFFN63Jrbfedf8OFCUAet-Ij3p0IvHrmNfuYmGmamZEKmXHrFJ-WsDhqfd4poOD_TLiudhAVNtx-z3NKaF4ZqHkTiFjmyPjKlDn1sqMykGDfz87I3DZVXd7UvVF2dwJg9MzYs3Js1ULjl2QTnsvuqFMTMIs8FJsEN0Agy6D5nONFNj3FU0yYP3C0hbn8qrkIb20zXV3TjMuutuDAOfsURjBN5DjPaHWdB8JAL2Sio23OdpPG-62dmVRgqtxcgm5q2FuJv_OpfwUa1m_13i_ly8lGBj5IGcMIca_fZtOM21p8fptMoy-7Sbw2rnvwTI4WoGnn-MLEEPUEKQDEWLvsUL5JM2SUV29vvO1cFXov06AA91rFe5Xft76oc22U9TB8Is50-nbsxhzz23U6v3vsDkbOwfBLNmlL7d21t3Eow-anqcmDj47CG-WkTWtnKcGj47NTTafusPaSPow7ftzxaKt5xSLh0L0bZOVPBnklnGkFaGsC_zFY4laUiN0cQXv9DuUKwsslrIkdi7tVQRQrd38vzae5hvzIdvQha5ziwOwirJJaVYyUXQxlqQ5b6W3PtywlXPKsBWIjyv0w2iVHBNJAMJvF-67iaHblLPHZXTONj5SFM1xRPXgBOrWLaoQ5YNl4qPIEGRHcpAH0rryhOMfACZAsP5donW4xgvvln0G5LbFdJoXfedSmX1ezeAmkT-RUrej52dZFsSouyNkvSRVD49kzDJDv7u1b-QeVxjQY6tTslsJcDc4d4SuXtCHQVTw6qJVqcz95MJkdIiRpQu78dQBpgzpIUT1m2CACfvcX-C_nxMKvwq5WA6ikiMXnsK0QQEud8tVqwFP-3mUm-htNVlj0qmx9i56vVm4fWYrcsizWxeuSBOQL0QokiLD4GwhTVqGaK2p8KStnyOW9gBz35Jt3tY637c1spCXvY1rcs-qxZi8Q7n6PhHuBHImsX8VHHgiDBAnReOJ5I4EVQ1WZ-ny-_2vXUxYDbYrkCHEQqxEiL3nHF4Ns3PD1mgSwoEG6ay7Hai7W-YXhoxqem7df0zRXGl5dWF5Ar4Yko6CSU54qHOH1pgCQW-Ineh7QBgxIy9mE1lWwMDeGz8lrXvGLqbwH4MC_12RwYEItWbf1Kx7W18wIRdu_07HivSdmbo8cNWZoYZly9eLQgtX21HmqA_QFGFv6BSoH9UtFABe3Kwwnw1Yd4UNrjCpGny4wXpVSmqK4Z6pG-gbwWDBpDgX0gaoXE5J7i7zqSKQGaSlT5dTK-q_B7QDJ5RVT2SZ7ivgveVfNcIn7nyiTWf58EiL9LVgLBUztihbXw2t5X75Qos8hbZJeligmFyYZtC0128lrBKoOgjfiro_PGToVRUPzZonjiSPtbtjB3LKWfz7UXWMpdDQsiQsWmuCWKX2jA4_SXac0mMy5LZPqSH32YmyD8oXCWMfZNgvzjVuBiWU5mgPtJhMWxnmGYNavymqNF2XKVmYbF2Hwky9B_8QWM0xyE-Sf0GVCeNFmGTnnOi5URTFkDVF3BN8VsQnHTsMe08Pukr-xICRZaRmXUf7XoHageeCMtsdy0]--></g></svg>