<?xml version="1.0" encoding="us-ascii" standalone="no"?><svg xmlns="http://www.w3.org/2000/svg" xmlns:xlink="http://www.w3.org/1999/xlink" contentStyleType="text/css" height="1323px" preserveAspectRatio="none" style="width:1808px;height:1323px;background:#F3F7EE;" version="1.1" viewBox="0 0 1808 1323" width="1808px" zoomAndPan="magnify"><defs/><g><rect fill="#F3F7EE" height="1323" style="stroke:none;stroke-width:1.0;" width="1808" x="0" y="0"/><text fill="#000000" font-family="sans-serif" font-size="14" font-weight="bold" lengthAdjust="spacing" textLength="129.1875" x="832.4063" y="24.5332">kEmber &#20998;&#23618;&#26550;&#26500;&#22270;</text><!--cluster ?????--><g id="cluster_&#29992;&#25143;&#25509;&#21475;&#23618;"><rect fill="#BEEFFF" height="123" style="stroke:#2F2F2F;stroke-width:1.0;" width="761" x="121" y="116.6094"/><text fill="#111827" font-family="sans-serif" font-size="14" font-weight="bold" lengthAdjust="spacing" textLength="72.1875" x="465.4063" y="133.1426">&#29992;&#25143;&#25509;&#21475;&#23618;</text></g><!--cluster ?????--><g id="cluster_&#24212;&#29992;&#32534;&#25490;&#23618;"><rect fill="#EAC7E9" height="238" style="stroke:#2F2F2F;stroke-width:1.0;" width="616" x="100" y="263.6094"/><text fill="#111827" font-family="sans-serif" font-size="14" font-weight="bold" lengthAdjust="spacing" textLength="72.1875" x="371.9063" y="280.1426">&#24212;&#29992;&#32534;&#25490;&#23618;</text></g><!--cluster ?????--><g id="cluster_&#26680;&#24515;&#31639;&#27861;&#23618;"><rect fill="#FFE3A8" height="141" style="stroke:#2F2F2F;stroke-width:1.0;" width="1008" x="107" y="525.6094"/><text fill="#111827" font-family="sans-serif" font-size="14" font-weight="bold" lengthAdjust="spacing" textLength="72.1875" x="574.9063" y="542.1426">&#26680;&#24515;&#31639;&#27861;&#23618;</text></g><!--cluster ???????--><g id="cluster_&#20960;&#20309;&#39046;&#22495;&#27169;&#22411;&#23618;"><rect fill="#FFDFA8" height="141" style="stroke:#2F2F2F;stroke-width:1.0;" width="1264" x="7" y="690.6094"/><text fill="#111827" font-family="sans-serif" font-size="14" font-weight="bold" lengthAdjust="spacing" textLength="101.0625" x="588.4688" y="707.1426">&#20960;&#20309;&#39046;&#22495;&#27169;&#22411;&#23618;</text></g><!--cluster ????????--><g id="cluster_&#22522;&#30784;&#35774;&#26045;&#19982;&#25968;&#20540;&#23618;"><rect fill="#F4C5D1" height="256" style="stroke:#2F2F2F;stroke-width:1.0;" width="520" x="746" y="855.6094"/><text fill="#111827" font-family="sans-serif" font-size="14" font-weight="bold" lengthAdjust="spacing" textLength="115.5" x="948.25" y="872.1426">&#22522;&#30784;&#35774;&#26045;&#19982;&#25968;&#20540;&#23618;</text></g><!--entity UI_Main--><g id="elem_UI_Main"><rect fill="#FFFFFF" height="55.2188" style="stroke:#2F2F2F;stroke-width:0.5;" width="172" x="324" y="160.6094"/><text fill="#111827" font-family="sans-serif" font-size="14" lengthAdjust="spacing" textLength="56" x="382" y="185.1426">&#31243;&#24207;&#20837;&#21475;</text><text fill="#111827" font-family="sans-serif" font-size="14" lengthAdjust="spacing" textLength="152" x="334" y="202.752">src/application/main.cpp</text></g><!--entity UI_Config--><g id="elem_UI_Config"><rect fill="#FFFFFF" height="55.2188" style="stroke:#2F2F2F;stroke-width:0.5;" width="146" x="531" y="160.6094"/><text fill="#111827" font-family="sans-serif" font-size="14" lengthAdjust="spacing" textLength="124" x="542" y="185.1426">&#36816;&#34892;&#37197;&#32622; / &#21442;&#25968;&#23545;&#35937;</text><text fill="#111827" font-family="sans-serif" font-size="14" lengthAdjust="spacing" textLength="126" x="541" y="202.752">&#20219;&#21153;&#21442;&#25968;&#19982;&#20837;&#21475;&#37197;&#32622;</text></g><!--entity UI_Batch--><g id="elem_UI_Batch"><rect fill="#FFFFFF" height="55.2188" style="stroke:#2F2F2F;stroke-width:0.5;" width="144" x="145" y="160.6094"/><text fill="#111827" font-family="sans-serif" font-size="14" lengthAdjust="spacing" textLength="70" x="182" y="185.1426">&#25209;&#22788;&#29702;&#20837;&#21475;</text><text fill="#111827" font-family="sans-serif" font-size="14" lengthAdjust="spacing" textLength="124" x="155" y="202.752">&#27979;&#35797; / &#33050;&#26412;&#35843;&#29992;&#20837;&#21475;</text></g><!--entity UI_Out--><g id="elem_UI_Out"><rect fill="#FFFFFF" height="55.2188" style="stroke:#2F2F2F;stroke-width:0.5;" width="146" x="712" y="160.6094"/><text fill="#111827" font-family="sans-serif" font-size="14" lengthAdjust="spacing" textLength="84" x="743" y="185.1426">&#32467;&#26524;&#36755;&#20986;&#25509;&#21475;</text><text fill="#111827" font-family="sans-serif" font-size="14" lengthAdjust="spacing" textLength="126" x="722" y="202.752">&#36755;&#20986;&#32452;&#32455;&#19982;&#23637;&#31034;&#20837;&#21475;</text></g><!--entity APP_Problem--><g id="elem_APP_Problem"><rect fill="#FFFFFF" height="55.2188" style="stroke:#2F2F2F;stroke-width:0.5;" width="204" x="321" y="307.6094"/><text fill="#111827" font-family="sans-serif" font-size="14" lengthAdjust="spacing" textLength="84" x="381" y="332.1426">&#24067;&#23572;&#38382;&#39064;&#35013;&#37197;</text><text fill="#111827" font-family="sans-serif" font-size="14" lengthAdjust="spacing" textLength="184" x="331" y="349.752">src/core/bool_problem.h/.cpp</text></g><!--entity APP_Orchestrate--><g id="elem_APP_Orchestrate"><rect fill="#FFFFFF" height="55.2188" style="stroke:#2F2F2F;stroke-width:0.5;" width="162" x="124" y="307.6094"/><text fill="#111827" font-family="sans-serif" font-size="14" lengthAdjust="spacing" textLength="84" x="163" y="332.1426">&#27714;&#35299;&#20219;&#21153;&#32534;&#25490;</text><text fill="#111827" font-family="sans-serif" font-size="14" lengthAdjust="spacing" textLength="142" x="134" y="349.752">&#36755;&#20837; polygon &#38598;&#21512;&#32452;&#32455;</text></g><!--entity APP_AABB--><g id="elem_APP_AABB"><rect fill="#FFFFFF" height="55.2188" style="stroke:#2F2F2F;stroke-width:0.5;" width="163" x="317.5" y="422.6094"/><text fill="#111827" font-family="sans-serif" font-size="14" lengthAdjust="spacing" textLength="84" x="357" y="447.1426">&#22330;&#26223;&#36793;&#30028;&#35745;&#31639;</text><text fill="#111827" font-family="sans-serif" font-size="14" lengthAdjust="spacing" textLength="143" x="327.5" y="464.752">computeAABBPlanes()</text></g><!--entity APP_Result--><g id="elem_APP_Result"><rect fill="#FFFFFF" height="55.2188" style="stroke:#2F2F2F;stroke-width:0.5;" width="132" x="560" y="307.6094"/><text fill="#111827" font-family="sans-serif" font-size="14" lengthAdjust="spacing" textLength="56" x="598" y="332.1426">&#32467;&#26524;&#27719;&#24635;</text><text fill="#111827" font-family="sans-serif" font-size="14" lengthAdjust="spacing" textLength="112" x="570" y="349.752">&#36755;&#20986;&#38754;&#25910;&#38598;&#19982;&#24402;&#24182;</text></g><!--entity APP_DTO--><g id="elem_APP_DTO"><rect fill="#FFFFFF" height="55.2188" style="stroke:#2F2F2F;stroke-width:0.5;" width="158" x="124" y="422.6094"/><text fill="#111827" font-family="sans-serif" font-size="14" lengthAdjust="spacing" textLength="84" x="161" y="447.1426">&#20219;&#21153;&#25968;&#25454;&#23545;&#35937;</text><text fill="#111827" font-family="sans-serif" font-size="14" lengthAdjust="spacing" textLength="138" x="134" y="464.752">&#23616;&#37096;&#23376;&#38382;&#39064; / &#21442;&#32771;&#29366;&#24577;</text></g><!--entity ALG_Subdivision--><g id="elem_ALG_Subdivision"><rect fill="#FFFFFF" height="72.8281" style="stroke:#2F2F2F;stroke-width:0.5;" width="104" x="310" y="569.6094"/><text fill="#111827" font-family="sans-serif" font-size="14" lengthAdjust="spacing" textLength="56" x="334" y="594.1426">&#31354;&#38388;&#32454;&#20998;</text><text fill="#111827" font-family="sans-serif" font-size="14" lengthAdjust="spacing" textLength="84" x="320" y="611.752">&#35770;&#25991; 4.1 / 4.2</text><text fill="#111827" font-family="sans-serif" font-size="14" lengthAdjust="spacing" textLength="56" x="334" y="629.3613">&#35268;&#21010;&#23454;&#29616;</text></g><!--entity ALG_Ref--><g id="elem_ALG_Ref"><rect fill="#FFFFFF" height="72.8281" style="stroke:#2F2F2F;stroke-width:0.5;" width="143" x="131.5" y="569.6094"/><text fill="#111827" font-family="sans-serif" font-size="14" lengthAdjust="spacing" textLength="123" x="141.5" y="594.1426">&#21442;&#32771;&#28857;&#19982; WNV &#20256;&#25773;</text><text fill="#111827" font-family="sans-serif" font-size="14" lengthAdjust="spacing" textLength="96" x="155" y="611.752">&#35770;&#25991; 4.2.2 / 4.4</text><text fill="#111827" font-family="sans-serif" font-size="14" lengthAdjust="spacing" textLength="56" x="175" y="629.3613">&#35268;&#21010;&#23454;&#29616;</text></g><!--entity ALG_BSP--><g id="elem_ALG_BSP"><rect fill="#FFFFFF" height="55.2188" style="stroke:#2F2F2F;stroke-width:0.5;" width="171" x="449.5" y="578.6094"/><text fill="#111827" font-family="sans-serif" font-size="14" lengthAdjust="spacing" textLength="91" x="489.5" y="603.1426">&#23616;&#37096; BSP &#26500;&#24314;</text><text fill="#111827" font-family="sans-serif" font-size="14" lengthAdjust="spacing" textLength="151" x="459.5" y="620.752">src/algorithm/bsp.h/.cpp</text></g><!--entity ALG_Clip--><g id="elem_ALG_Clip"><rect fill="#FFFFFF" height="55.2188" style="stroke:#2F2F2F;stroke-width:0.5;" width="197" x="893.5" y="578.6094"/><text fill="#111827" font-family="sans-serif" font-size="14" lengthAdjust="spacing" textLength="98" x="943" y="603.1426">&#35009;&#21098;&#19982;&#20132;&#32447;&#36733;&#20307;</text><text fill="#111827" font-family="sans-serif" font-size="14" lengthAdjust="spacing" textLength="177" x="903.5" y="620.752">src/geometry/clipping.h/.cpp</text></g><!--entity ALG_Classify--><g id="elem_ALG_Classify"><rect fill="#FFFFFF" height="72.8281" style="stroke:#2F2F2F;stroke-width:0.5;" width="202" x="656" y="569.6094"/><text fill="#111827" font-family="sans-serif" font-size="14" lengthAdjust="spacing" textLength="56" x="729" y="594.1426">&#21494;&#38754;&#20998;&#31867;</text><text fill="#111827" font-family="sans-serif" font-size="14" lengthAdjust="spacing" textLength="182" x="666" y="611.752">segment tracing / f_op(WNV)</text><text fill="#111827" font-family="sans-serif" font-size="14" lengthAdjust="spacing" textLength="56" x="729" y="629.3613">&#35268;&#21010;&#23454;&#29616;</text></g><!--entity DOMAIN_Geom--><g id="elem_DOMAIN_Geom"><rect fill="#FFFFFF" height="72.8281" style="stroke:#2F2F2F;stroke-width:0.5;" width="250" x="718" y="734.6094"/><text fill="#111827" font-family="sans-serif" font-size="14" lengthAdjust="spacing" textLength="56" x="815" y="759.1426">&#20960;&#20309;&#22270;&#20803;</text><text fill="#111827" font-family="sans-serif" font-size="14" lengthAdjust="spacing" textLength="230" x="728" y="776.752">Line256 / Segment256 / Polygon256</text><text fill="#111827" font-family="sans-serif" font-size="14" lengthAdjust="spacing" textLength="212" x="737" y="794.3613">src/geometry/geometry256.h/.cpp</text></g><!--entity DOMAIN_Plane--><g id="elem_DOMAIN_Plane"><rect fill="#FFFFFF" height="72.8281" style="stroke:#2F2F2F;stroke-width:0.5;" width="244" x="1003" y="734.6094"/><text fill="#111827" font-family="sans-serif" font-size="14" lengthAdjust="spacing" textLength="84" x="1083" y="759.1426">&#24179;&#38754;&#28857;&#32447;&#34920;&#31034;</text><text fill="#111827" font-family="sans-serif" font-size="14" lengthAdjust="spacing" textLength="221" x="1014.5" y="776.752">Plane3i / HomPoint4i / PlanePoint3i</text><text fill="#111827" font-family="sans-serif" font-size="14" lengthAdjust="spacing" textLength="224" x="1013" y="794.3613">src/geometry/plane_geometry256.h</text></g><!--entity DOMAIN_Winding--><g id="elem_DOMAIN_Winding"><rect fill="#FFFFFF" height="72.8281" style="stroke:#2F2F2F;stroke-width:0.5;" width="233" x="265.5" y="734.6094"/><text fill="#111827" font-family="sans-serif" font-size="14" lengthAdjust="spacing" textLength="98" x="333" y="759.1426">&#32469;&#25968;&#19982;&#24067;&#23572;&#35821;&#20041;</text><text fill="#111827" font-family="sans-serif" font-size="14" lengthAdjust="spacing" textLength="213" x="275.5" y="776.752">WNV / BoolStatus / f_diff / f_union</text><text fill="#111827" font-family="sans-serif" font-size="14" lengthAdjust="spacing" textLength="173" x="295.5" y="794.3613">src/math/winding_number_f.h</text></g><!--entity DOMAIN_BSP--><g id="elem_DOMAIN_BSP"><rect fill="#FFFFFF" height="55.2188" style="stroke:#2F2F2F;stroke-width:0.5;" width="149" x="533.5" y="743.6094"/><text fill="#111827" font-family="sans-serif" font-size="14" lengthAdjust="spacing" textLength="119" x="548.5" y="768.1426">&#23616;&#37096; BSP &#39046;&#22495;&#23545;&#35937;</text><text fill="#111827" font-family="sans-serif" font-size="14" lengthAdjust="spacing" textLength="129" x="543.5" y="785.752">BSPNode / BSPTree</text></g><!--entity DOMAIN_Ref--><g id="elem_DOMAIN_Ref"><rect fill="#FFFFFF" height="55.2188" style="stroke:#2F2F2F;stroke-width:0.5;" width="199" x="31.5" y="743.6094"/><text fill="#111827" font-family="sans-serif" font-size="14" lengthAdjust="spacing" textLength="70" x="96" y="768.1426">&#21442;&#32771;&#28857;&#23545;&#35937;</text><text fill="#111827" font-family="sans-serif" font-size="14" lengthAdjust="spacing" textLength="179" x="41.5" y="785.752">src/algorithm/WNV_tracing.h</text></g><!--entity INFRA_IO--><g id="elem_INFRA_IO"><rect fill="#FFFFFF" height="72.8281" style="stroke:#2F2F2F;stroke-width:0.5;" width="132" x="951" y="899.6094"/><text fill="#111827" font-family="sans-serif" font-size="14" lengthAdjust="spacing" textLength="112" x="961" y="924.1426">&#25991;&#20214;&#23548;&#20837;&#23548;&#20986;&#36866;&#37197;</text><text fill="#111827" font-family="sans-serif" font-size="14" lengthAdjust="spacing" textLength="92" x="971" y="941.752">src/io/io.h/.cpp</text><text fill="#111827" font-family="sans-serif" font-size="14" lengthAdjust="spacing" textLength="70" x="982" y="959.3613">&#24403;&#21069;&#20026;&#31354;&#22771;</text></g><!--entity INFRA_Math--><g id="elem_INFRA_Math"><rect fill="#FFFFFF" height="55.2188" style="stroke:#2F2F2F;stroke-width:0.5;" width="145" x="770.5" y="908.6094"/><text fill="#111827" font-family="sans-serif" font-size="14" lengthAdjust="spacing" textLength="84" x="801" y="933.1426">&#25972;&#25968;&#25968;&#23398;&#20869;&#26680;</text><text fill="#111827" font-family="sans-serif" font-size="14" lengthAdjust="spacing" textLength="125" x="780.5" y="950.752">src/math/math256.h</text></g><!--entity INFRA_Slim--><g id="elem_INFRA_Slim"><rect fill="#FFFFFF" height="55.2188" style="stroke:#2F2F2F;stroke-width:0.5;" width="151" x="770.5" y="1032.6094"/><text fill="#111827" font-family="sans-serif" font-size="14" lengthAdjust="spacing" textLength="98" x="797" y="1057.1426">&#31532;&#19977;&#26041;&#25972;&#25968;&#23454;&#29616;</text><text fill="#111827" font-family="sans-serif" font-size="14" lengthAdjust="spacing" textLength="131" x="780.5" y="1074.752">include/slimcpplib/*.h</text></g><!--entity INFRA_3rd--><g id="elem_INFRA_3rd"><rect fill="#FFFFFF" height="72.8281" style="stroke:#2F2F2F;stroke-width:0.5;" width="124" x="1118" y="899.6094"/><text fill="#111827" font-family="sans-serif" font-size="14" lengthAdjust="spacing" textLength="98" x="1131" y="924.1426">&#21487;&#36873;&#22806;&#37096;&#20960;&#20309;&#24211;</text><text fill="#111827" font-family="sans-serif" font-size="14" lengthAdjust="spacing" textLength="94" x="1133" y="941.752">Eigen3 / CGAL</text><text fill="#111827" font-family="sans-serif" font-size="14" lengthAdjust="spacing" textLength="104" x="1128" y="959.3613">CMake &#21487;&#36873;&#20381;&#36182;</text></g><!--entity ExtCaller--><g id="elem_ExtCaller"><rect fill="#FFFFFF" height="37.6094" style="stroke:#2F2F2F;stroke-width:0.5;" width="157" x="331.5" y="54.1094"/><text fill="#111827" font-family="sans-serif" font-size="14" lengthAdjust="spacing" textLength="137" x="341.5" y="78.6426">&#21629;&#20196;&#34892; / Demo &#35843;&#29992;&#26041;</text></g><!--entity ExtInput--><g id="elem_ExtInput"><rect fill="#FFFFFF" height="55.2188" style="stroke:#2F2F2F;stroke-width:0.5;" width="184" x="524" y="45.6094"/><text fill="#111827" font-family="sans-serif" font-size="14" lengthAdjust="spacing" textLength="84" x="574" y="70.1426">&#36755;&#20837;&#27169;&#22411;&#25991;&#20214;</text><text fill="#111827" font-family="sans-serif" font-size="14" lengthAdjust="spacing" textLength="164" x="534" y="87.752">OBJ / STL / Polygon Soup</text></g><!--entity ExtScript--><g id="elem_ExtScript"><rect fill="#FFFFFF" height="37.6094" style="stroke:#2F2F2F;stroke-width:0.5;" width="158" x="138" y="54.1094"/><text fill="#111827" font-family="sans-serif" font-size="14" lengthAdjust="spacing" textLength="138" x="148" y="78.6426">&#25209;&#22788;&#29702;&#33050;&#26412; / &#27979;&#35797;&#39537;&#21160;</text></g><!--entity ExtOutput--><g id="elem_ExtOutput"><rect fill="#FFFFFF" height="55.2188" style="stroke:#2F2F2F;stroke-width:0.5;" width="130" x="1672" y="307.6094"/><text fill="#111827" font-family="sans-serif" font-size="14" lengthAdjust="spacing" textLength="70" x="1702" y="332.1426">&#32467;&#26524;&#28040;&#36153;&#32773;</text><text fill="#111827" font-family="sans-serif" font-size="14" lengthAdjust="spacing" textLength="110" x="1682" y="349.752">&#21487;&#35270;&#21270; / &#19979;&#28216;&#22788;&#29702;</text></g><!--entity FS--><g id="elem_FS"><path d="M1282,1046.6094 C1282,1036.6094 1320,1036.6094 1320,1036.6094 C1320,1036.6094 1358,1036.6094 1358,1046.6094 L1358,1073.2188 C1358,1083.2188 1320,1083.2188 1320,1083.2188 C1320,1083.2188 1282,1083.2188 1282,1073.2188 L1282,1046.6094 " fill="#F1F1F1" style="stroke:#181818;stroke-width:0.5;"/><path d="M1282,1046.6094 C1282,1056.6094 1320,1056.6094 1320,1056.6094 C1320,1056.6094 1358,1056.6094 1358,1046.6094 " fill="none" style="stroke:#181818;stroke-width:0.5;"/><text fill="#000000" font-family="sans-serif" font-size="14" lengthAdjust="spacing" textLength="56" x="1292" y="1075.1426">&#25991;&#20214;&#31995;&#32479;</text></g><!--entity SlimLib--><g id="elem_SlimLib"><rect fill="#FFFFFF" height="37.6094" style="stroke:#2F2F2F;stroke-width:0.5;" width="81" x="805.5" y="1147.6094"/><text fill="#111827" font-family="sans-serif" font-size="14" lengthAdjust="spacing" textLength="61" x="815.5" y="1172.1426">slimcpplib</text></g><!--entity ThirdLib--><g id="elem_ThirdLib"><rect fill="#FFFFFF" height="55.2188" style="stroke:#2F2F2F;stroke-width:0.5;" width="114" x="1393" y="1032.6094"/><text fill="#111827" font-family="sans-serif" font-size="14" lengthAdjust="spacing" textLength="94" x="1403" y="1057.1426">Eigen3 / CGAL</text><text fill="#111827" font-family="sans-serif" font-size="14" lengthAdjust="spacing" textLength="28" x="1436" y="1074.752">&#21487;&#36873;</text></g><g id="elem_GMN74"><path d="M1131,576.6094 L1131,635.6641 L1495,635.6641 L1495,586.6094 L1485,576.6094 L1131,576.6094 " fill="#FEFFDD" style="stroke:#181818;stroke-width:0.5;"/><path d="M1485,576.6094 L1485,586.6094 L1495,586.6094 L1485,576.6094 " fill="#FEFFDD" style="stroke:#181818;stroke-width:1.0;"/><text fill="#000000" font-family="sans-serif" font-size="13" lengthAdjust="spacing" textLength="224" x="1196.5" y="595.1045">&#35770;&#25991;&#23450;&#20041;&#30340;&#23436;&#25972; EMBER &#20027;&#27969;&#31243;&#21253;&#21547;&#65306;</text><text fill="#000000" font-family="sans-serif" font-size="13" lengthAdjust="spacing" textLength="273" x="1172" y="611.4561">&#31354;&#38388;&#32454;&#20998;&#12289;&#21442;&#32771;&#28857;&#20256;&#25773;&#12289;&#21494;&#38754;&#20998;&#31867;&#19982;&#26089;&#20572;&#24182;&#34892;&#12290;</text><text fill="#000000" font-family="sans-serif" font-size="13" lengthAdjust="spacing" textLength="343" x="1137" y="627.8076">&#24403;&#21069;&#20179;&#24211;&#24050;&#23454;&#35013;&#30340;&#26680;&#24515;&#26159;&#23616;&#37096; BSP&#12289;&#35009;&#21098;&#21644;&#31934;&#30830;&#20960;&#20309;&#20869;&#26680;&#12290;</text></g><!--link ExtCaller to UI_Main--><g id="link_ExtCaller_UI_Main"><path d="M410,92.2694 C410,110.7294 410,133.5494 410,154.5694 " fill="none" id="ExtCaller-to-UI_Main" style="stroke:#181818;stroke-width:1.0;"/><polygon fill="#181818" points="410,160.5694,414,151.5694,410,155.5694,406,151.5694,410,160.5694" style="stroke:#181818;stroke-width:1.0;"/></g><!--link ExtInput to UI_Config--><g id="link_ExtInput_UI_Config"><path d="M613.16,100.8894 C611.24,118.8994 609.3642,136.583 607.4542,154.553 " fill="none" id="ExtInput-to-UI_Config" style="stroke:#181818;stroke-width:1.0;"/><polygon fill="#181818" points="606.82,160.5194,611.7488,151.9926,607.3485,155.5474,603.7936,151.147,606.82,160.5194" style="stroke:#181818;stroke-width:1.0;"/></g><!--link ExtScript to UI_Batch--><g id="link_ExtScript_UI_Batch"><path d="M217,92.2694 C217,110.7294 217,133.5494 217,154.5694 " fill="none" id="ExtScript-to-UI_Batch" style="stroke:#181818;stroke-width:1.0;"/><polygon fill="#181818" points="217,160.5694,221,151.5694,217,155.5694,213,151.5694,217,160.5694" style="stroke:#181818;stroke-width:1.0;"/></g><!--link UI_Out to ExtOutput--><g id="link_UI_Out_ExtOutput"><path d="M858.23,188.9994 C1039.27,189.6494 1503.48,197.1394 1645,255.6094 C1672.17,266.8294 1693.0176,284.8998 1710.0576,302.9198 " fill="none" id="UI_Out-to-ExtOutput" style="stroke:#181818;stroke-width:1.0;"/><polygon fill="#181818" points="1714.18,307.2794,1710.9027,297.9918,1710.7446,303.6464,1705.09,303.4884,1714.18,307.2794" style="stroke:#181818;stroke-width:1.0;"/></g><!--link UI_Main to APP_Problem--><g id="link_UI_Main_APP_Problem"><path d="M412.38,215.7094 C414.72,241.6994 417.7144,275.1033 420.0544,301.2133 " fill="none" id="UI_Main-to-APP_Problem" style="stroke:#181818;stroke-width:1.0;"/><polygon fill="#181818" points="420.59,307.1894,423.7707,297.8682,420.1437,302.2093,415.8026,298.5824,420.59,307.1894" style="stroke:#181818;stroke-width:1.0;"/></g><!--link UI_Config to APP_Orchestrate--><g id="link_UI_Config_APP_Orchestrate"><path d="M572.42,215.6794 C556.07,227.7894 535.14,240.8994 514,247.6094 C469.49,261.7294 347.8,239.4094 304,255.6094 C274.99,266.3394 252.1803,284.8445 233.6903,303.0945 " fill="none" id="UI_Config-to-APP_Orchestrate" style="stroke:#181818;stroke-width:1.0;"/><polygon fill="#181818" points="229.42,307.3094,238.6353,303.834,232.9786,303.797,233.0155,298.1403,229.42,307.3094" style="stroke:#181818;stroke-width:1.0;"/></g><!--link UI_Batch to APP_Orchestrate--><g id="link_UI_Batch_APP_Orchestrate"><path d="M214.8,215.7094 C212.65,241.6994 209.8847,275.0998 207.7247,301.2098 " fill="none" id="UI_Batch-to-APP_Orchestrate" style="stroke:#181818;stroke-width:1.0;"/><polygon fill="#181818" points="207.23,307.1894,211.9584,298.5498,207.6422,302.2064,203.9856,297.8902,207.23,307.1894" style="stroke:#181818;stroke-width:1.0;"/></g><!--link UI_Out to APP_Result--><g id="link_UI_Out_APP_Result"><path d="M755.84,215.7094 C727.24,241.7894 688.3026,277.2856 659.6826,303.3956 " fill="none" id="UI_Out-to-APP_Result" style="stroke:#181818;stroke-width:1.0;"/><polygon fill="#181818" points="655.25,307.4394,664.5947,304.3287,658.9438,304.0695,659.203,298.4186,655.25,307.4394" style="stroke:#181818;stroke-width:1.0;"/></g><!--link APP_Problem to ALG_BSP--><g id="link_APP_Problem_ALG_BSP"><path d="M513.46,362.6894 C562.86,379.2294 616.81,401.3394 631,422.6094 C652.46,454.7794 645.84,473.9094 631,509.6094 C619.36,537.6094 599.7589,557.8958 578.5289,574.8458 " fill="none" id="APP_Problem-to-ALG_BSP" style="stroke:#181818;stroke-width:1.0;"/><polygon fill="#181818" points="573.84,578.5894,583.369,576.0999,577.7474,575.4697,578.3776,569.8481,573.84,578.5894" style="stroke:#181818;stroke-width:1.0;"/></g><!--link APP_Orchestrate to ALG_Subdivision--><g id="link_APP_Orchestrate_ALG_Subdivision"><path d="M286.18,358.8094 C371.75,382.9294 494.7,418.1894 498,422.6094 C521.15,453.5794 523.64,480.6694 498,509.6094 C488.2,520.6694 444.91,510.4194 432,517.6094 C410.59,529.5394 396.5555,545.8793 384.5155,564.5193 " fill="none" id="APP_Orchestrate-to-ALG_Subdivision" style="stroke:#181818;stroke-width:1.0;"/><polygon fill="#181818" points="381.26,569.5594,389.5032,564.1696,383.9729,565.3593,382.7832,559.829,381.26,569.5594" style="stroke:#181818;stroke-width:1.0;"/></g><!--link APP_Orchestrate to ALG_BSP--><g id="link_APP_Orchestrate_ALG_BSP"><path d="M286.03,357.8394 C292.11,359.4594 298.15,361.0594 304,362.6094 C405.71,389.5494 468.26,339.6694 533,422.6094 C568.09,467.5694 556.4653,533.7565 545.4853,572.5165 " fill="none" id="APP_Orchestrate-to-ALG_BSP" style="stroke:#181818;stroke-width:1.0;"/><polygon fill="#181818" points="543.85,578.2894,550.1516,570.7203,545.2128,573.4787,542.4545,568.5399,543.85,578.2894" style="stroke:#181818;stroke-width:1.0;"/></g><!--link APP_AABB to ALG_Subdivision--><g id="link_APP_AABB_ALG_Subdivision"><path d="M392.56,477.9294 C386.47,503.2694 378.7021,535.6055 371.9921,563.5255 " fill="none" id="APP_AABB-to-ALG_Subdivision" style="stroke:#181818;stroke-width:1.0;"/><polygon fill="#181818" points="370.59,569.3594,376.5823,561.5432,371.7584,564.4978,368.8038,559.6738,370.59,569.3594" style="stroke:#181818;stroke-width:1.0;"/></g><!--link APP_Result to ALG_Classify--><g id="link_APP_Result_ALG_Classify"><path d="M639.04,362.8894 C662.79,411.6594 710.4734,509.5649 737.0634,564.1749 " fill="none" id="APP_Result-to-ALG_Classify" style="stroke:#181818;stroke-width:1.0;"/><polygon fill="#181818" points="739.69,569.5694,739.3464,559.7265,737.5011,565.0739,732.1537,563.2287,739.69,569.5694" style="stroke:#181818;stroke-width:1.0;"/></g><!--link APP_DTO to ALG_Ref--><g id="link_APP_DTO_ALG_Ref"><path d="M203,477.9294 C203,503.2694 203,535.4394 203,563.3594 " fill="none" id="APP_DTO-to-ALG_Ref" style="stroke:#181818;stroke-width:1.0;"/><polygon fill="#181818" points="203,569.3594,207,560.3594,203,564.3594,199,560.3594,203,569.3594" style="stroke:#181818;stroke-width:1.0;"/></g><!--link ALG_Subdivision to DOMAIN_Geom--><g id="link_ALG_Subdivision_DOMAIN_Geom"><path d="M389.28,642.6794 C400.95,655.1394 415.66,667.7294 432,674.6094 C459.46,686.1694 671.45,674.1094 700,682.6094 C735.84,693.2894 766.8548,711.7918 793.7148,731.0618 " fill="none" id="ALG_Subdivision-to-DOMAIN_Geom" style="stroke:#181818;stroke-width:1.0;"/><polygon fill="#181818" points="798.59,734.5594,793.609,726.0629,794.5274,731.6447,788.9456,732.5632,798.59,734.5594" style="stroke:#181818;stroke-width:1.0;"/></g><!--link ALG_Subdivision to DOMAIN_Ref--><g id="link_ALG_Subdivision_DOMAIN_Ref"><path d="M332.78,642.8294 C321.27,654.6894 307.18,666.8294 292,674.6094 C274.31,683.6694 266.22,674.6694 248,682.6094 C214.28,697.2994 185.7104,719.4286 163.3804,739.3186 " fill="none" id="ALG_Subdivision-to-DOMAIN_Ref" style="stroke:#181818;stroke-width:1.0;"/><polygon fill="#181818" points="158.9,743.3094,168.2811,740.3101,162.6336,739.9837,162.96,734.3363,158.9,743.3094" style="stroke:#181818;stroke-width:1.0;"/></g><!--link ALG_Ref to DOMAIN_Ref--><g id="link_ALG_Ref_DOMAIN_Ref"><path d="M187.2,642.8794 C173.79,673.2394 157.2638,710.6407 145.1638,738.0407 " fill="none" id="ALG_Ref-to-DOMAIN_Ref" style="stroke:#181818;stroke-width:1.0;"/><polygon fill="#181818" points="142.74,743.5294,150.0348,736.9123,144.7598,738.9555,142.7166,733.6805,142.74,743.5294" style="stroke:#181818;stroke-width:1.0;"/></g><!--link ALG_Ref to DOMAIN_Winding--><g id="link_ALG_Ref_DOMAIN_Winding"><path d="M242.28,642.8794 C272.13,670.0594 308.5534,703.23 338.3734,730.38 " fill="none" id="ALG_Ref-to-DOMAIN_Winding" style="stroke:#181818;stroke-width:1.0;"/><polygon fill="#181818" points="342.81,734.4194,338.848,725.4026,339.1128,731.0532,333.4622,731.3181,342.81,734.4194" style="stroke:#181818;stroke-width:1.0;"/></g><!--link ALG_BSP to DOMAIN_BSP--><g id="link_ALG_BSP_DOMAIN_BSP"><path d="M546.89,633.6594 C560.47,663.9694 580.0883,707.7832 593.6583,738.0932 " fill="none" id="ALG_BSP-to-DOMAIN_BSP" style="stroke:#181818;stroke-width:1.0;"/><polygon fill="#181818" points="596.11,743.5694,596.0832,733.7206,594.0669,739.0059,588.7816,736.9895,596.11,743.5694" style="stroke:#181818;stroke-width:1.0;"/></g><!--link ALG_BSP to DOMAIN_Geom--><g id="link_ALG_BSP_DOMAIN_Geom"><path d="M567.61,633.7194 C587.15,648.2094 613.15,665.0794 639,674.6094 C664.66,684.0594 674.22,673.4994 700,682.6094 C734.44,694.7794 764.5457,712.6357 791.3157,731.1557 " fill="none" id="ALG_BSP-to-DOMAIN_Geom" style="stroke:#181818;stroke-width:1.0;"/><polygon fill="#181818" points="796.25,734.5694,791.1243,726.1594,792.1381,731.7247,786.5728,732.7385,796.25,734.5694" style="stroke:#181818;stroke-width:1.0;"/></g><!--link ALG_Clip to DOMAIN_Geom--><g id="link_ALG_Clip_DOMAIN_Geom"><path d="M967.73,633.6594 C942.66,661.0894 907.4381,699.6208 879.6681,730.0008 " fill="none" id="ALG_Clip-to-DOMAIN_Geom" style="stroke:#181818;stroke-width:1.0;"/><polygon fill="#181818" points="875.62,734.4294,884.6446,730.4852,878.9934,730.7389,878.7398,725.0877,875.62,734.4294" style="stroke:#181818;stroke-width:1.0;"/></g><!--link ALG_Clip to DOMAIN_Plane--><g id="link_ALG_Clip_DOMAIN_Plane"><path d="M1013.66,633.6594 C1036.04,661.0894 1067.3076,699.3999 1092.0876,729.7799 " fill="none" id="ALG_Clip-to-DOMAIN_Plane" style="stroke:#181818;stroke-width:1.0;"/><polygon fill="#181818" points="1095.88,734.4294,1093.291,724.9269,1092.7196,730.5548,1087.0917,729.9835,1095.88,734.4294" style="stroke:#181818;stroke-width:1.0;"/></g><!--link ALG_Classify to DOMAIN_Winding--><g id="link_ALG_Classify_DOMAIN_Winding"><path d="M705.99,642.7494 C685.74,655.0594 661.67,667.5294 638,674.6094 C585.94,690.1894 567.55,665.4194 516,682.6094 C482.4,693.8194 453.8088,711.9413 428.7688,730.9513 " fill="none" id="ALG_Classify-to-DOMAIN_Winding" style="stroke:#181818;stroke-width:1.0;"/><polygon fill="#181818" points="423.99,734.5794,433.577,732.3232,427.9724,731.556,428.7396,725.9514,423.99,734.5794" style="stroke:#181818;stroke-width:1.0;"/></g><!--link ALG_Classify to DOMAIN_Geom--><g id="link_ALG_Classify_DOMAIN_Geom"><path d="M775.87,642.8794 C790.21,670.0594 807.0393,701.9631 821.3693,729.1131 " fill="none" id="ALG_Classify-to-DOMAIN_Geom" style="stroke:#181818;stroke-width:1.0;"/><polygon fill="#181818" points="824.17,734.4194,823.5065,724.5929,821.8361,729.9975,816.4315,728.3271,824.17,734.4194" style="stroke:#181818;stroke-width:1.0;"/></g><!--link DOMAIN_Geom to INFRA_Math--><g id="link_DOMAIN_Geom_INFRA_Math"><path d="M843,807.8794 C843,838.2394 843,875.1294 843,902.5294 " fill="none" id="DOMAIN_Geom-to-INFRA_Math" style="stroke:#181818;stroke-width:1.0;"/><polygon fill="#181818" points="843,908.5294,847,899.5294,843,903.5294,839,899.5294,843,908.5294" style="stroke:#181818;stroke-width:1.0;"/></g><!--link DOMAIN_Plane to INFRA_Math--><g id="link_DOMAIN_Plane_INFRA_Math"><path d="M1061.94,807.6794 C1038.69,819.4494 1011.74,831.5794 986,839.6094 C963.68,846.5694 954.96,837.2494 934,847.6094 C905.32,861.7894 883.578,883.6391 866.908,903.7591 " fill="none" id="DOMAIN_Plane-to-INFRA_Math" style="stroke:#181818;stroke-width:1.0;"/><polygon fill="#181818" points="863.08,908.3794,871.9021,904.001,866.27,904.5292,865.7418,898.897,863.08,908.3794" style="stroke:#181818;stroke-width:1.0;"/></g><!--link DOMAIN_Winding to INFRA_Math--><g id="link_DOMAIN_Winding_INFRA_Math"><path d="M446.68,807.6794 C468.33,818.7794 492.86,830.4894 516,839.6094 C601.29,873.2194 697.3496,899.6825 764.4696,916.4825 " fill="none" id="DOMAIN_Winding-to-INFRA_Math" style="stroke:#181818;stroke-width:1.0;"/><polygon fill="#181818" points="770.29,917.9394,762.5306,911.8738,765.4396,916.7253,760.5881,919.6344,770.29,917.9394" style="stroke:#181818;stroke-width:1.0;"/></g><!--link DOMAIN_BSP to INFRA_Math--><g id="link_DOMAIN_BSP_INFRA_Math"><path d="M644,798.6994 C661.16,811.2494 682.03,826.3494 701,839.6094 C734.97,863.3494 769.0799,886.2629 797.6499,905.2129 " fill="none" id="DOMAIN_BSP-to-INFRA_Math" style="stroke:#181818;stroke-width:1.0;"/><polygon fill="#181818" points="802.65,908.5294,797.3608,900.2213,798.4833,905.7656,792.9389,906.8881,802.65,908.5294" style="stroke:#181818;stroke-width:1.0;"/></g><!--link DOMAIN_Ref to INFRA_Math--><g id="link_DOMAIN_Ref_INFRA_Math"><path d="M168.81,798.6594 C190.92,812.9494 219.93,829.6394 248,839.6094 C428.91,903.8494 650.1908,924.6991 764.4008,931.5691 " fill="none" id="DOMAIN_Ref-to-INFRA_Math" style="stroke:#181818;stroke-width:1.0;"/><polygon fill="#181818" points="770.39,931.9294,761.6464,927.3962,765.399,931.6292,761.1661,935.3818,770.39,931.9294" style="stroke:#181818;stroke-width:1.0;"/></g><!--link INFRA_IO to FS--><g id="link_INFRA_IO_FS"><path d="M1083.4,965.4194 C1089.34,967.8794 1095.27,970.3094 1101,972.6094 C1170.3,1000.4894 1188.75,1004.5894 1258,1032.6094 C1265.7,1035.7294 1268.3786,1036.8012 1276.2086,1040.1312 " fill="none" id="INFRA_IO-to-FS" style="stroke:#181818;stroke-width:1.0;"/><polygon fill="#181818" points="1281.73,1042.4794,1275.0133,1035.2762,1277.1288,1040.5226,1271.8824,1042.638,1281.73,1042.4794" style="stroke:#181818;stroke-width:1.0;"/></g><!--link INFRA_Math to INFRA_Slim--><g id="link_INFRA_Math_INFRA_Slim"><path d="M843.66,963.8794 C844.16,984.2194 844.6925,1006.0712 845.1925,1026.4012 " fill="none" id="INFRA_Math-to-INFRA_Slim" style="stroke:#181818;stroke-width:1.0;"/><polygon fill="#181818" points="845.34,1032.3994,849.1175,1023.3037,845.2171,1027.4009,841.1199,1023.5004,845.34,1032.3994" style="stroke:#181818;stroke-width:1.0;"/></g><!--link INFRA_3rd to ThirdLib--><g id="link_INFRA_3rd_ThirdLib"><path d="M1242.28,965.2494 C1287.6,985.7294 1343.0423,1010.7788 1387.1723,1030.7188 " fill="none" id="INFRA_3rd-to-ThirdLib" style="stroke:#181818;stroke-width:1.0;"/><polygon fill="#181818" points="1392.64,1033.1894,1386.0854,1025.8383,1388.0835,1031.1306,1382.7913,1033.1287,1392.64,1033.1894" style="stroke:#181818;stroke-width:1.0;"/></g><!--link INFRA_Slim to SlimLib--><g id="link_INFRA_Slim_SlimLib"><path d="M846,1087.7494 C846,1106.4994 846,1125.0794 846,1141.5694 " fill="none" id="INFRA_Slim-to-SlimLib" style="stroke:#181818;stroke-width:1.0;"/><polygon fill="#181818" points="846,1147.5694,850,1138.5694,846,1142.5694,842,1138.5694,846,1147.5694" style="stroke:#181818;stroke-width:1.0;"/></g><!--link APP_Orchestrate to APP_AABB--><g id="link_APP_Orchestrate_APP_AABB"><path d="M250.98,362.8894 C281.9,380.8994 317.3154,401.5294 348.1654,419.4994 " fill="none" id="APP_Orchestrate-to-APP_AABB" style="stroke:#181818;stroke-width:1.0;"/><polygon fill="#181818" points="353.35,422.5194,347.5865,414.533,349.0295,420.0027,343.5598,421.4458,353.35,422.5194" style="stroke:#181818;stroke-width:1.0;"/></g><!--link APP_Orchestrate to APP_DTO--><g id="link_APP_Orchestrate_APP_DTO"><path d="M204.53,362.8894 C204.21,380.8994 203.8968,398.5503 203.5768,416.5203 " fill="none" id="APP_Orchestrate-to-APP_DTO" style="stroke:#181818;stroke-width:1.0;"/><polygon fill="#181818" points="203.47,422.5194,207.6296,413.592,203.559,417.5202,199.6309,413.4496,203.47,422.5194" style="stroke:#181818;stroke-width:1.0;"/></g><!--link APP_Result to INFRA_IO--><g id="link_APP_Result_INFRA_IO"><path d="M692.19,339.2394 C879.89,349.6194 1408.77,389.8994 1513,517.6094 C1557.12,571.6694 1546.07,613.1694 1513,674.6094 C1449.91,791.8394 1389.52,798.1894 1263,839.6094 C1228.74,850.8194 1133.8,832.6594 1101,847.6094 C1076.66,858.6994 1059.4985,875.5948 1044.6485,894.5648 " fill="none" id="APP_Result-to-INFRA_IO" style="stroke:#181818;stroke-width:1.0;"/><polygon fill="#181818" points="1040.95,899.2894,1049.6474,894.6682,1044.032,895.3522,1043.348,889.7369,1040.95,899.2894" style="stroke:#181818;stroke-width:1.0;"/></g><!--link UI_Config to INFRA_IO--><g id="link_UI_Config_INFRA_IO"><path d="M639.11,215.8694 C655.37,227.1294 675.4,239.4794 695,247.6094 C889.14,328.0994 1619,238.9494 1619,449.1094 C1619,449.1094 1619,449.1094 1619,607.1094 C1619,746.0594 1536.17,781.4094 1410,839.6094 C1378.81,853.9994 1132.42,833.7394 1101,847.6094 C1076.34,858.4994 1059.0125,875.6246 1044.1825,894.7846 " fill="none" id="UI_Config-to-INFRA_IO" style="stroke:#181818;stroke-width:1.0;"/><polygon fill="#181818" points="1040.51,899.5294,1049.1819,894.8606,1043.5704,895.5754,1042.8556,889.9639,1040.51,899.5294" style="stroke:#181818;stroke-width:1.0;"/></g><!--link ALG_Subdivision to GMN74--><g id="link_ALG_Subdivision_GMN74"><path d="M382.85,569.2394 C394.95,551.0694 411.79,530.3694 432,517.6094 C438.75,513.3494 441.57,514.4994 449.5,513.6094 C484.83,509.6194 1054.17,509.6194 1089.5,513.6094 C1153.14,520.7894 1220.27,552.2394 1264.15,576.4994 " fill="none" id="ALG_Subdivision-GMN74" style="stroke:#181818;stroke-width:1.0;stroke-dasharray:7.0,7.0;"/></g><rect fill="none" height="80.4375" id="_legend" rx="7.5" ry="7.5" style="stroke:#000000;stroke-width:1.0;" width="292" x="1490" y="1202.2188"/><text fill="#000000" font-family="sans-serif" font-size="14" lengthAdjust="spacing" textLength="98" x="1587" y="1221.752">&#26412;&#22270;&#38405;&#35835;&#26041;&#24335;&#65306;</text><text fill="#000000" font-family="sans-serif" font-size="14" lengthAdjust="spacing" textLength="142" x="1565" y="1239.3613">1. &#33258;&#19978;&#32780;&#19979;&#30475;&#20998;&#23618;&#32844;&#36131;</text><text fill="#000000" font-family="sans-serif" font-size="14" lengthAdjust="spacing" textLength="114" x="1579" y="1256.9707">2. &#21516;&#23618;&#30475;&#27169;&#22359;&#25286;&#20998;</text><text fill="#000000" font-family="sans-serif" font-size="14" lengthAdjust="spacing" textLength="282" x="1495" y="1274.5801">3. &#31661;&#22836;&#20165;&#34920;&#31034;&#20027;&#35201;&#20381;&#36182;&#26041;&#21521;&#65292;&#19981;&#34920;&#31034;&#25191;&#34892;&#39034;&#24207;</text><text fill="#000000" font-family="sans-serif" font-size="14" lengthAdjust="spacing" textLength="490" x="652" y="1311.1895">&#21442;&#32771;&#35770;&#25991;&#35793;&#25991;&#19982;&#24403;&#21069;&#24037;&#31243;&#30446;&#24405;&#25972;&#29702;&#30340;&#20998;&#23618;&#24635;&#35272;&#65292;&#25353;&#23618;&#23637;&#31034;&#27169;&#22359;&#65292;&#19981;&#24378;&#35843;&#25191;&#34892;&#26102;&#24207;</text><!--SRC=[ZLZRJnj75t_VlsAKlhILYikbN_gzL3B6JgaW8CptzSMIjRRNzYhhNMkzRXfLbSp5N88J2CIG9eJ4WHJI1ZiqXFY2oHzJp-xwgVz2pypiBciRDnLevJbdvdSkSswxcgX90hhbJqK45U6L9Nmoh- -TwNkB-Ca55-NJcgZ82A_Fcxa5irpNjvVDoWDujghtSNCBhzx3xryQHsl6ap9k5lNYgR6nP3nUj71o3VDmvQ_pWbvOXIK-AHe7TVseX9_k0B5LlOVFw-QR1Ntrq2mLz9qpN5_dE4r98qr14KNJb1IAYQeG9IfmNEQMAATvbK-X21-zbL2Lh1ppAPAYeay2mu7hVhzhHoR9nvJRefn0SLxA22vEJ8ZpMKcR5NxKl9AOa5E2hA4eF0JLjIiD4lY44DJkW6-81hoSaDmm3Wtzn24qsgNGxQIe2OIkg351jPGS2f0_e0OKMRDeWuE3NmzT1zeCEwpAS0bVSZzptAM0Q_X1izKu01SX3neJKWe2dnaFZ_JjsZN4Pv3_Hyt7InBexpfZNcpX_4lYwxqrSbkDiv0yDVeT80Hd9-0vhKXt4d2nGIMRjb76vNHMSuFegpLyi0WtQYu-rdTVmp7ztPfPARPVdU2xH_QnO5GLqntdZCQMlhUhdwsOfpKpbm_9UBrY7YxXmZP0jAfhUhNAS6s8gQn6H7TWW84hx_NxB_7wFiJEDVJ9gDyV20IelpKb8MX9S1LP8EG-ThG6KGIcmx6Gd56Z7ZwTbiGeJsB8a-95UI2QPXR_Rpmy2Ujk1FF31hYwdRzdDCkWBaI-Ndo3ApNpf1IIMuq6lbjYD981L0xRQsFw53ak9hfH7LVQgZ5FWW3cMtQbZ6aZZV9QDDbZ8FKjkTxbElDEI6Ohex5eD6XUqZphn08F0zBFtP5LVmXIZVDj_VucSxBVwxlk_-z7d8oh2_ZDm_PEkVtYaRcV1_kPgwEAAdWYYYA5qweIaOJKGDBZkDixFHsUPkGUvvpCcuVxpBTC6MPJ_YLAMt7QVhA4DrQOYGxSb1fD2XbDvMcoTQguMzT_gPWNDQDOCCibexmJagDA2g9Cy7f7HwSbNXOodtxcG17YrQxMJvQXZjbERZzzeJyy0sre_Tl4jJC7OaR8G67f1c5MGRZezyfs5E6JN7lX21zlC1UoA8FwQjmzqtDp3k3OxDGLTwO_h-8F2s2G_hR8xYmGy0zxl_vOOhogjtTEZSOIb6OmXbPoD38m2C971eQ0SWX5UnENzupxRvW64pV2mMma9luWPaZzxNOmqtY-1ev0tz_yFsgTFzStZrtGGmD357oa3_YC4Ey1fOv1ey5fH1fGeswbi9HGL55BfZoHJBeZfW06DlUayFuSNlqD56lL3upw1xFPR3Mt65H2K5A2fjxnH2KndOO6qGtd0tglhMTmx-0uumG28ICaQDE0k8kI3kD1yR2I_XHyy5aVItqIdyc8yJjNPU3oyrQps7wnX9yzOzNQljEnm4Vlb1s6Fetp2o5vGfI5eQ_-Gqeyqv0jh4eFYouFs3-0utR2sDIaT_nc-0PmU-JLte8VuCw9Kqj7K6H2CisaOH44VQkafXLHraR8WfBfSbZiafich727TBTWUh8t5OjMnQMbnwmSjsgh8Pd4dGUwh285DLxBPkXTnCHudFx8oX2tJ7YArv8Uc0TYS65XEKjcdKwftpFUFmGakoCxXO5oKua9H7fmUbOL13VO5I7ff8iDq1dNO4ZOYgTElLYIz4JDixfHofdb2tsx2KuX3IftRWNEYE-hiS6F10wR273bd3G9U49ToyqxPLnKuDyA2IXMTCfhLUjGGV3-MwhS-Ct0Z3SyFjM3MpmbbGxKEVuLB-MXLBdSJnwNjyqW9e7MSzUlNxUggp3TC3IMIo5PbADIDYPuCfAOYfAU7l5yte4L14Qlsoljt2e-s2RrbcLB7Ig1Nqm8yZ1Sdk-6To8a-oRvMm9YUriNJyrtsoxOOJLctq2Cr_W8dt4SQBnj68rdT6yWwBwVInqfasWs8KRSExeqOBBfvjcagCR8RiuPxD0NNtpZZ2lse6OJhNd36SHiEfiUMEkdDDUSPM5HihilEt0EnzrYRT1-J5kGgnboBdJ6iofsrt67v-uu_VROvqdFxdkGAU2mdH9iDLQ7GHACwmAWJ7ST_0S-EM_X_0koNMOiCzmiQbKlsP5F6jE_Oh02wZQwdmPNyIaivrfGfYjRtLBwy2mPVRYsWRqSsrak3cUN6ig0BBlakRRIr7VIbJASDBhSGUbsBbuTNVOas8z9HhAkw79gOMVoE6HELW105HD93IdndbXbun8kFuQ6HbwSomKeUyW_EUgVWLUbXlvkZhpI5F9uu_U_pXzpxZ7kpzpSvHH6fozAkPnLI6lOUONdTc5CXNUQFtFpd5ND6rjG1_7xFw2umW0FSjbKgJ-gN7Oy06E35Dui67zS6AMoLK5fOITWWXn3n3gEauG4ML0hENYTWPca_IXlLXfGnl7vEj5yS02Pop2KtJLpyEg_PkokiOy4vbp1FDtdXWOGtYZ06XZi4u6-HepaXWUGKJx61wUjHfuD7U0MyzSvLgW9_iO3zZM1STdNX7QfJhucW59CDUvl]--></g></svg>