<?xml version="1.0" encoding="us-ascii" standalone="no"?><svg xmlns="http://www.w3.org/2000/svg" xmlns:xlink="http://www.w3.org/1999/xlink" contentStyleType="text/css" height="890px" preserveAspectRatio="none" style="width:1740px;height:890px;background:#FFFFFF;" version="1.1" viewBox="0 0 1740 890" width="1740px" zoomAndPan="magnify"><defs/><g><text fill="#000000" font-family="sans-serif" font-size="14" font-weight="bold" lengthAdjust="spacing" textLength="135.3125" x="795.3438" y="24.5332">kEmber UML &#32452;&#20214;&#22270;</text><!--cluster ????--><g id="cluster_&#25509;&#20837;&#32452;&#20214;"><rect fill="none" height="198" rx="2.5" ry="2.5" style="stroke:#334155;stroke-width:1.0;" width="204" x="623" y="602.1094"/><text fill="#000000" font-family="sans-serif" font-size="14" font-weight="bold" lengthAdjust="spacing" textLength="57.75" x="696.125" y="618.6426">&#25509;&#20837;&#32452;&#20214;</text></g><!--cluster ????--><g id="cluster_&#24212;&#29992;&#32452;&#20214;"><rect fill="none" height="108" rx="2.5" ry="2.5" style="stroke:#334155;stroke-width:1.0;" width="507" x="7" y="643.1094"/><text fill="#000000" font-family="sans-serif" font-size="14" font-weight="bold" lengthAdjust="spacing" textLength="57.75" x="231.625" y="659.6426">&#24212;&#29992;&#32452;&#20214;</text></g><!--cluster ????--><g id="cluster_&#27714;&#35299;&#32452;&#20214;"><rect fill="none" height="288" rx="2.5" ry="2.5" style="stroke:#334155;stroke-width:1.0;" width="519.5" x="323.5" y="120.1094"/><text fill="#000000" font-family="sans-serif" font-size="14" font-weight="bold" lengthAdjust="spacing" textLength="57.75" x="554.375" y="136.6426">&#27714;&#35299;&#32452;&#20214;</text></g><!--cluster ????--><g id="cluster_&#39046;&#22495;&#32452;&#20214;"><rect fill="none" height="288" rx="2.5" ry="2.5" style="stroke:#334155;stroke-width:1.0;" width="282" x="876" y="182.1094"/><text fill="#000000" font-family="sans-serif" font-size="14" font-weight="bold" lengthAdjust="spacing" textLength="57.75" x="988.125" y="198.6426">&#39046;&#22495;&#32452;&#20214;</text></g><!--cluster ????--><g id="cluster_&#22522;&#30784;&#32452;&#20214;"><rect fill="none" height="198" rx="2.5" ry="2.5" style="stroke:#334155;stroke-width:1.0;" width="543" x="1191" y="112.1094"/><text fill="#000000" font-family="sans-serif" font-size="14" font-weight="bold" lengthAdjust="spacing" textLength="57.75" x="1433.625" y="128.6426">&#22522;&#30784;&#32452;&#20214;</text></g><!--entity C_App--><g id="elem_C_App"><rect fill="#F1F1F1" height="55.2188" rx="2.5" ry="2.5" style="stroke:#334155;stroke-width:0.5;" width="172" x="639" y="638.6094"/><text fill="#111827" font-family="sans-serif" font-size="14" lengthAdjust="spacing" textLength="106" x="672" y="663.1426">Application Entry</text><text fill="#111827" font-family="sans-serif" font-size="14" lengthAdjust="spacing" textLength="152" x="649" y="680.752">src/application/main.cpp</text></g><!--entity C_IO--><g id="elem_C_IO"><rect fill="#F1F1F1" height="55.2188" rx="2.5" ry="2.5" style="stroke:#334155;stroke-width:0.5;" width="112" x="669" y="728.6094"/><text fill="#111827" font-family="sans-serif" font-size="14" lengthAdjust="spacing" textLength="68" x="691" y="753.1426">IO Adapter</text><text fill="#111827" font-family="sans-serif" font-size="14" lengthAdjust="spacing" textLength="92" x="679" y="770.752">src/io/io.h/.cpp</text></g><!--entity C_Problem--><g id="elem_C_Problem"><rect fill="#F1F1F1" height="55.2188" rx="2.5" ry="2.5" style="stroke:#334155;stroke-width:0.5;" width="204" x="23" y="679.6094"/><text fill="#111827" font-family="sans-serif" font-size="14" lengthAdjust="spacing" textLength="80" x="85" y="704.1426">BoolProblem</text><text fill="#111827" font-family="sans-serif" font-size="14" lengthAdjust="spacing" textLength="184" x="33" y="721.752">src/core/bool_problem.h/.cpp</text></g><!--entity C_Result--><g id="elem_C_Result"><rect fill="#F1F1F1" height="55.2188" rx="2.5" ry="2.5" style="stroke:#334155;stroke-width:0.5;" width="146" x="352" y="679.6094"/><text fill="#111827" font-family="sans-serif" font-size="14" lengthAdjust="spacing" textLength="110" x="370" y="704.1426">Result Assembler</text><text fill="#111827" font-family="sans-serif" font-size="14" lengthAdjust="spacing" textLength="126" x="362" y="721.752">&#32467;&#26524;&#27719;&#24635;&#19982;&#36755;&#20986;&#31579;&#36873;</text></g><!--entity C_Subdivision--><g id="elem_C_Subdivision"><rect fill="#F1F1F1" height="55.2188" rx="2.5" ry="2.5" style="stroke:#334155;stroke-width:0.5;" width="140" x="355" y="156.6094"/><text fill="#111827" font-family="sans-serif" font-size="14" lengthAdjust="spacing" textLength="120" x="365" y="181.1426">Subdivision Engine</text><text fill="#111827" font-family="sans-serif" font-size="14" lengthAdjust="spacing" textLength="84" x="383" y="198.752">&#35770;&#25991;&#30446;&#26631;&#32452;&#20214;</text></g><!--entity C_Ref--><g id="elem_C_Ref"><rect fill="#F1F1F1" height="55.2188" rx="2.5" ry="2.5" style="stroke:#334155;stroke-width:0.5;" width="196" x="627" y="156.6094"/><text fill="#111827" font-family="sans-serif" font-size="14" lengthAdjust="spacing" textLength="176" x="637" y="181.1426">Reference WNV Propagator</text><text fill="#111827" font-family="sans-serif" font-size="14" lengthAdjust="spacing" textLength="84" x="683" y="198.752">&#35770;&#25991;&#30446;&#26631;&#32452;&#20214;</text></g><!--entity C_BSP--><g id="elem_C_BSP"><rect fill="#F1F1F1" height="55.2188" rx="2.5" ry="2.5" style="stroke:#334155;stroke-width:0.5;" width="171" x="339.5" y="246.6094"/><text fill="#111827" font-family="sans-serif" font-size="14" lengthAdjust="spacing" textLength="75" x="387.5" y="271.1426">BSP Builder</text><text fill="#111827" font-family="sans-serif" font-size="14" lengthAdjust="spacing" textLength="151" x="349.5" y="288.752">src/algorithm/bsp.h/.cpp</text></g><!--entity C_Clip--><g id="elem_C_Clip"><rect fill="#F1F1F1" height="55.2188" rx="2.5" ry="2.5" style="stroke:#334155;stroke-width:0.5;" width="204" x="623" y="246.6094"/><text fill="#111827" font-family="sans-serif" font-size="14" lengthAdjust="spacing" textLength="184" x="633" y="271.1426">Clipping / Intersection Carrier</text><text fill="#111827" font-family="sans-serif" font-size="14" lengthAdjust="spacing" textLength="177" x="636.5" y="288.752">src/geometry/clipping.h/.cpp</text></g><!--entity C_Classify--><g id="elem_C_Classify"><rect fill="#F1F1F1" height="55.2188" rx="2.5" ry="2.5" style="stroke:#334155;stroke-width:0.5;" width="110" x="370" y="336.6094"/><text fill="#111827" font-family="sans-serif" font-size="14" lengthAdjust="spacing" textLength="90" x="380" y="361.1426">Leaf Classifier</text><text fill="#111827" font-family="sans-serif" font-size="14" lengthAdjust="spacing" textLength="84" x="383" y="378.752">&#35770;&#25991;&#30446;&#26631;&#32452;&#20214;</text></g><!--entity C_Geom--><g id="elem_C_Geom"><rect fill="#F1F1F1" height="55.2188" rx="2.5" ry="2.5" style="stroke:#334155;stroke-width:0.5;" width="250" x="892" y="398.6094"/><text fill="#111827" font-family="sans-serif" font-size="14" lengthAdjust="spacing" textLength="86" x="974" y="423.1426">Geometry256</text><text fill="#111827" font-family="sans-serif" font-size="14" lengthAdjust="spacing" textLength="230" x="902" y="440.752">Line256 / Segment256 / Polygon256</text></g><!--entity C_Plane--><g id="elem_C_Plane"><rect fill="#F1F1F1" height="55.2188" rx="2.5" ry="2.5" style="stroke:#334155;stroke-width:0.5;" width="241" x="896.5" y="218.6094"/><text fill="#111827" font-family="sans-serif" font-size="14" lengthAdjust="spacing" textLength="122" x="956" y="243.1426">PlaneGeometry256</text><text fill="#111827" font-family="sans-serif" font-size="14" lengthAdjust="spacing" textLength="221" x="906.5" y="260.752">Plane3i / HomPoint4i / PlanePoint3i</text></g><!--entity C_Winding--><g id="elem_C_Winding"><rect fill="#F1F1F1" height="55.2188" rx="2.5" ry="2.5" style="stroke:#334155;stroke-width:0.5;" width="233" x="900.5" y="308.6094"/><text fill="#111827" font-family="sans-serif" font-size="14" lengthAdjust="spacing" textLength="100" x="967" y="333.1426">WindingNumber</text><text fill="#111827" font-family="sans-serif" font-size="14" lengthAdjust="spacing" textLength="213" x="910.5" y="350.752">WNV / BoolStatus / f_diff / f_union</text></g><!--entity C_Math--><g id="elem_C_Math"><rect fill="#F1F1F1" height="55.2188" rx="2.5" ry="2.5" style="stroke:#334155;stroke-width:0.5;" width="180" x="1207" y="236.6094"/><text fill="#111827" font-family="sans-serif" font-size="14" lengthAdjust="spacing" textLength="55" x="1269.5" y="261.1426">Math256</text><text fill="#111827" font-family="sans-serif" font-size="14" lengthAdjust="spacing" textLength="160" x="1217" y="278.752">256-bit arithmetic helpers</text></g><!--entity C_Slim--><g id="elem_C_Slim"><rect fill="#F1F1F1" height="55.2188" rx="2.5" ry="2.5" style="stroke:#334155;stroke-width:0.5;" width="135" x="1538.5" y="238.6094"/><text fill="#111827" font-family="sans-serif" font-size="14" lengthAdjust="spacing" textLength="115" x="1548.5" y="263.1426">slimcpplib Adapter</text><text fill="#111827" font-family="sans-serif" font-size="14" lengthAdjust="spacing" textLength="109" x="1551.5" y="280.752">int256_t backend</text></g><!--entity C_Third--><g id="elem_C_Third"><rect fill="#F1F1F1" height="55.2188" rx="2.5" ry="2.5" style="stroke:#334155;stroke-width:0.5;" width="224" x="1494" y="148.6094"/><text fill="#111827" font-family="sans-serif" font-size="14" lengthAdjust="spacing" textLength="204" x="1504" y="173.1426">Optional External Geometry Libs</text><text fill="#111827" font-family="sans-serif" font-size="14" lengthAdjust="spacing" textLength="94" x="1559" y="190.752">Eigen3 / CGAL</text></g><!--entity C_FS--><g id="elem_C_FS"><path d="M973,810.6094 C973,800.6094 1017,800.6094 1017,800.6094 C1017,800.6094 1061,800.6094 1061,810.6094 L1061,837.2188 C1061,847.2188 1017,847.2188 1017,847.2188 C1017,847.2188 973,847.2188 973,837.2188 L973,810.6094 " fill="#F1F1F1" style="stroke:#181818;stroke-width:0.5;"/><path d="M973,810.6094 C973,820.6094 1017,820.6094 1017,820.6094 C1017,820.6094 1061,820.6094 1061,810.6094 " fill="none" style="stroke:#181818;stroke-width:0.5;"/><text fill="#000000" font-family="sans-serif" font-size="14" lengthAdjust="spacing" textLength="68" x="983" y="839.1426">Mesh Files</text></g><!--entity I_Setup--><g id="elem_I_Setup"><ellipse cx="125" cy="614.1094" fill="#F1F1F1" rx="8" ry="8" style="stroke:#181818;stroke-width:0.5;"/><text fill="#000000" font-family="sans-serif" font-size="14" lengthAdjust="spacing" textLength="92" x="79" y="645.6426">IProblemSetup</text></g><!--entity I_Solver--><g id="elem_I_Solver"><ellipse cx="425" cy="779.1094" fill="#F1F1F1" rx="8" ry="8" style="stroke:#181818;stroke-width:0.5;"/><text fill="#000000" font-family="sans-serif" font-size="14" lengthAdjust="spacing" textLength="95" x="377.5" y="810.6426">ISolverRuntime</text></g><!--entity I_Geom--><g id="elem_I_Geom"><ellipse cx="1297" cy="389.1094" fill="#F1F1F1" rx="8" ry="8" style="stroke:#181818;stroke-width:0.5;"/><text fill="#000000" font-family="sans-serif" font-size="14" lengthAdjust="spacing" textLength="106" x="1244" y="420.6426">IGeometryKernel</text></g><!--entity I_Arith--><g id="elem_I_Arith"><ellipse cx="1297" cy="336.1094" fill="#F1F1F1" rx="8" ry="8" style="stroke:#181818;stroke-width:0.5;"/><text fill="#000000" font-family="sans-serif" font-size="14" lengthAdjust="spacing" textLength="106" x="1244" y="367.6426">IArithmeticKernel</text></g><!--entity I_File--><g id="elem_I_File"><ellipse cx="1017" cy="756.1094" fill="#F1F1F1" rx="8" ry="8" style="stroke:#181818;stroke-width:0.5;"/><text fill="#000000" font-family="sans-serif" font-size="14" lengthAdjust="spacing" textLength="71" x="981.5" y="787.6426">IFileAccess</text></g><g id="elem_GMN54"><path d="M288,44.6094 L288,103.6641 A0,0 0 0 0 288,103.6641 L421,103.6641 L425,156.1794 L429,103.6641 L562,103.6641 A0,0 0 0 0 562,103.6641 L562,54.6094 L552,44.6094 L288,44.6094 A0,0 0 0 0 288,44.6094 " fill="#FEFFDD" style="stroke:#181818;stroke-width:0.5;"/><path d="M552,44.6094 L552,54.6094 L562,54.6094 L552,44.6094 " fill="#FEFFDD" style="stroke:#181818;stroke-width:0.5;"/><text fill="#000000" font-family="sans-serif" font-size="13" lengthAdjust="spacing" textLength="195" x="323" y="63.1045">&#24403;&#21069;&#20179;&#24211;&#37324;&#65292;&#36825;&#20010;&#32452;&#20214;&#21450;&#20854;&#30456;&#37051;&#30340;</text><text fill="#000000" font-family="sans-serif" font-size="13" lengthAdjust="spacing" textLength="253" x="294" y="79.4561">Reference WNV Propagator / Leaf Classifier</text><text fill="#000000" font-family="sans-serif" font-size="13" lengthAdjust="spacing" textLength="169" x="336" y="95.8076">&#20173;&#20027;&#35201;&#20572;&#30041;&#22312;&#35770;&#25991;&#30446;&#26631;&#23618;&#38754;&#12290;</text></g><!--link C_App to I_Setup--><g id="link_C_App_I_Setup"><path d="M638.86,658.7094 C488.52,645.6294 192.8575,619.9182 139.9775,615.3282 " fill="none" id="C_App-to-I_Setup" style="stroke:#181818;stroke-width:1.0;"/><polygon fill="#181818" points="134,614.8094,142.6204,619.5727,138.9813,615.2418,143.3122,611.6026,134,614.8094" style="stroke:#181818;stroke-width:1.0;"/></g><!--link I_Setup to C_Problem--><g id="link_I_Setup_C_Problem"><path d="M125,623.3094 C125,642.0394 125,660.7694 125,679.4994 " fill="none" id="I_Setup-C_Problem" style="stroke:#181818;stroke-width:1.0;"/></g><!--link C_IO to I_File--><g id="link_C_IO_I_File"><path d="M781.23,756.1094 C853.54,756.1094 968.95,756.1094 1001.67,756.1094 " fill="none" id="C_IO-to-I_File" style="stroke:#181818;stroke-width:1.0;"/><polygon fill="#181818" points="1007.67,756.1094,998.67,752.1094,1002.67,756.1094,998.67,760.1094,1007.67,756.1094" style="stroke:#181818;stroke-width:1.0;"/></g><!--link I_File to C_FS--><g id="link_I_File_C_FS"><path d="M1017,765.1194 C1017,776.8994 1017,788.6894 1017,800.4694 " fill="none" id="I_File-C_FS" style="stroke:#181818;stroke-width:1.0;"/></g><!--link C_Problem to C_Result--><g id="link_C_Problem_C_Result"><path d="M227.31,707.1094 C268.14,707.1094 308.31,707.1094 345.66,707.1094 " fill="none" id="C_Problem-to-C_Result" style="stroke:#181818;stroke-width:1.0;"/><polygon fill="#181818" points="351.66,707.1094,342.66,703.1094,346.66,707.1094,342.66,711.1094,351.66,707.1094" style="stroke:#181818;stroke-width:1.0;"/></g><!--link C_Problem to I_Solver--><g id="link_C_Problem_I_Solver"><path d="M223.41,734.6194 C244.64,740.3194 267.02,746.1094 288,751.1094 C336.3,762.6294 389.0303,772.6468 410.0903,776.5468 " fill="none" id="C_Problem-to-I_Solver" style="stroke:#181818;stroke-width:1.0;"/><polygon fill="#181818" points="415.99,777.6394,407.8688,772.0674,411.0736,776.7289,406.4121,779.9337,415.99,777.6394" style="stroke:#181818;stroke-width:1.0;"/></g><!--link I_Solver to C_Subdivision--><g id="link_I_Solver_C_Subdivision"><path d="M415.99,780.2994 C386.04,783.6594 289.97,789.6694 257.5,733.6094 C230.38,686.7794 230.38,293.4394 257.5,246.6094 C277.18,212.6294 318.31,196.9694 354.88,189.8294 " fill="none" id="I_Solver-C_Subdivision" style="stroke:#181818;stroke-width:1.0;"/></g><!--link I_Solver to C_BSP--><g id="link_I_Solver_C_BSP"><path d="M415.99,780.2994 C386.04,783.6594 289.97,789.6694 257.5,733.6094 C235.39,695.4394 235.39,374.7794 257.5,336.6094 C274.38,307.4694 307.04,291.7994 339.07,283.4194 " fill="none" id="I_Solver-C_BSP" style="stroke:#181818;stroke-width:1.0;"/></g><!--link I_Solver to C_Classify--><g id="link_I_Solver_C_Classify"><path d="M415.99,780.2994 C386.04,783.6594 289.97,789.6694 257.5,733.6094 C186.9,611.7094 328.85,454.7494 394.33,391.9194 " fill="none" id="I_Solver-C_Classify" style="stroke:#181818;stroke-width:1.0;"/></g><!--link C_Subdivision to C_Ref--><g id="link_C_Subdivision_C_Ref"><path d="M495.12,184.1094 C534.23,184.1094 577.78,184.1094 620.76,184.1094 " fill="none" id="C_Subdivision-to-C_Ref" style="stroke:#181818;stroke-width:1.0;"/><polygon fill="#181818" points="626.76,184.1094,617.76,180.1094,621.76,184.1094,617.76,188.1094,626.76,184.1094" style="stroke:#181818;stroke-width:1.0;"/></g><!--link C_Subdivision to C_Geom--><g id="link_C_Subdivision_C_Geom"><path d="M495.1,196.6794 C518.16,203.4094 542.84,213.6494 562,229.1094 C598.12,258.2694 578.04,291.0294 615,319.1094 C637.65,336.3094 779.0273,371.6243 888.5573,397.2143 " fill="none" id="C_Subdivision-to-C_Geom" style="stroke:#181818;stroke-width:1.0;"/><polygon fill="#181818" points="894.4,398.5794,886.546,392.6367,889.5311,397.4418,884.726,400.4269,894.4,398.5794" style="stroke:#181818;stroke-width:1.0;"/></g><!--link C_Ref to C_Winding--><g id="link_C_Ref_C_Winding"><path d="M823.04,208.0194 C833.44,213.6294 843.09,220.5594 851,229.1094 C860.7,239.5994 858.04,280.8694 868,291.1094 C877.18,300.5394 882.8854,305.3423 894.8154,311.2623 " fill="none" id="C_Ref-to-C_Winding" style="stroke:#181818;stroke-width:1.0;"/><polygon fill="#181818" points="900.19,313.9294,893.9061,306.3457,895.7111,311.7068,890.35,313.5119,900.19,313.9294" style="stroke:#181818;stroke-width:1.0;"/></g><!--link C_BSP to C_Clip--><g id="link_C_BSP_C_Clip"><path d="M510.6,274.1094 C545.53,274.1094 580.31,274.1094 616.81,274.1094 " fill="none" id="C_BSP-to-C_Clip" style="stroke:#181818;stroke-width:1.0;"/><polygon fill="#181818" points="622.81,274.1094,613.81,270.1094,617.81,274.1094,613.81,278.1094,622.81,274.1094" style="stroke:#181818;stroke-width:1.0;"/></g><!--link C_BSP to C_Geom--><g id="link_C_BSP_C_Geom"><path d="M510.66,290.5694 C529.09,297.1494 547.41,306.3194 562,319.1094 C585.02,339.2894 566.96,363.4994 592,381.1094 C678.59,442.0094 794.752,449.2892 885.722,443.5192 " fill="none" id="C_BSP-to-C_Geom" style="stroke:#181818;stroke-width:1.0;"/><polygon fill="#181818" points="891.71,443.1394,882.4748,439.7171,886.72,443.4559,882.9813,447.7011,891.71,443.1394" style="stroke:#181818;stroke-width:1.0;"/></g><!--link C_Clip to C_Plane--><g id="link_C_Clip_C_Plane"><path d="M827.02,264.3594 C849.42,262.1894 867.3876,260.4546 890.4376,258.2346 " fill="none" id="C_Clip-to-C_Plane" style="stroke:#181818;stroke-width:1.0;"/><polygon fill="#181818" points="896.41,257.6594,887.068,254.5406,891.433,258.1387,887.8349,262.5038,896.41,257.6594" style="stroke:#181818;stroke-width:1.0;"/></g><!--link C_Clip to C_Geom--><g id="link_C_Clip_C_Geom"><path d="M826.95,301.7294 C839.57,308.8694 851.13,317.8494 860,329.1094 C874.47,347.4794 852.68,363.4394 868,381.1094 C874.77,388.9194 877.723,392.2826 886.573,397.6626 " fill="none" id="C_Clip-to-C_Geom" style="stroke:#181818;stroke-width:1.0;"/><polygon fill="#181818" points="891.7,400.7794,886.0874,392.6863,887.4275,398.1821,881.9317,399.5223,891.7,400.7794" style="stroke:#181818;stroke-width:1.0;"/></g><!--link C_Classify to C_Winding--><g id="link_C_Classify_C_Winding"><path d="M437.91,391.9594 C461.42,442.2294 518.12,541.2994 593,523.1094 C726.67,490.6394 740.56,432.8894 868,381.1094 C883.43,374.8394 894.3524,370.8195 910.7024,365.5195 " fill="none" id="C_Classify-to-C_Winding" style="stroke:#181818;stroke-width:1.0;"/><polygon fill="#181818" points="916.41,363.6694,906.6151,362.6396,911.6537,365.2112,909.082,370.2497,916.41,363.6694" style="stroke:#181818;stroke-width:1.0;"/></g><!--link C_Classify to C_Geom--><g id="link_C_Classify_C_Geom"><path d="M464.69,391.6594 C496.99,412.8694 545.15,440.4594 592,452.1094 C690.77,476.6694 800.3384,468.1663 885.8284,454.2063 " fill="none" id="C_Classify-to-C_Geom" style="stroke:#181818;stroke-width:1.0;"/><polygon fill="#181818" points="891.75,453.2394,882.223,450.7421,886.8154,454.0452,883.5123,458.6375,891.75,453.2394" style="stroke:#181818;stroke-width:1.0;"/></g><!--link C_Result to C_IO--><g id="link_C_Result_C_IO"><path d="M498.14,718.9694 C550.67,727.6094 614.8494,738.1668 662.9394,746.0668 " fill="none" id="C_Result-to-C_IO" style="stroke:#181818;stroke-width:1.0;"/><polygon fill="#181818" points="668.86,747.0394,660.6274,741.6334,663.9261,746.2289,659.3306,749.5275,668.86,747.0394" style="stroke:#181818;stroke-width:1.0;"/></g><!--link C_Geom to I_Geom--><g id="link_C_Geom_I_Geom"><path d="M1142.36,409.5594 C1202.22,401.5894 1259.7823,393.9299 1281.9023,390.9899 " fill="none" id="C_Geom-to-I_Geom" style="stroke:#181818;stroke-width:1.0;"/><polygon fill="#181818" points="1287.85,390.1994,1278.4014,387.42,1282.8936,390.8581,1279.4555,395.3503,1287.85,390.1994" style="stroke:#181818;stroke-width:1.0;"/></g><!--link C_Plane to I_Geom--><g id="link_C_Plane_I_Geom"><path d="M1137.72,269.8794 C1148.21,275.5294 1157.9,282.5094 1166,291.1094 C1188.24,314.7294 1160.05,339.1694 1183,362.1094 C1212.25,391.3394 1261.1213,391.4368 1281.8213,390.1668 " fill="none" id="C_Plane-to-I_Geom" style="stroke:#181818;stroke-width:1.0;"/><polygon fill="#181818" points="1287.81,389.7994,1278.5819,386.358,1282.8194,390.1056,1279.0718,394.343,1287.81,389.7994" style="stroke:#181818;stroke-width:1.0;"/></g><!--link I_Geom to C_Math--><g id="link_I_Geom_C_Math"><path d="M1287.97,389.7794 C1261.48,391.1994 1185.2,391.1394 1174.5,344.6094 C1170.86,328.7994 1171.1,320.1394 1183,309.1094 C1190.26,302.3894 1198.64,296.6194 1207.5,291.6794 " fill="none" id="I_Geom-C_Math" style="stroke:#181818;stroke-width:1.0;"/></g><!--link C_Winding to I_Arith--><g id="link_C_Winding_I_Arith"><path d="M1133.88,336.1094 C1196.16,336.1094 1258.8,336.1094 1281.91,336.1094 " fill="none" id="C_Winding-to-I_Arith" style="stroke:#181818;stroke-width:1.0;"/><polygon fill="#181818" points="1287.91,336.1094,1278.91,332.1094,1282.91,336.1094,1278.91,340.1094,1287.91,336.1094" style="stroke:#181818;stroke-width:1.0;"/></g><!--link I_Arith to C_Math--><g id="link_I_Arith_C_Math"><path d="M1297,326.8294 C1297,315.2294 1297,303.6394 1297,292.0394 " fill="none" id="I_Arith-C_Math" style="stroke:#181818;stroke-width:1.0;"/></g><!--link C_Math to C_Slim--><g id="link_C_Math_C_Slim"><path d="M1387.21,264.6894 C1435.36,264.9994 1487.8201,265.3514 1532.0401,265.6314 " fill="none" id="C_Math-to-C_Slim" style="stroke:#181818;stroke-width:1.0;"/><polygon fill="#181818" points="1538.04,265.6694,1529.0655,261.6125,1533.0401,265.6377,1529.0149,269.6123,1538.04,265.6694" style="stroke:#181818;stroke-width:1.0;"/></g><!--link C_Math to C_Third--><g id="link_C_Math_C_Third"><path d="M1387.21,238.5394 C1425.36,227.5994 1464.2121,216.462 1503.0921,205.322 " fill="none" id="C_Math-to-C_Third" style="stroke:#181818;stroke-width:1.0;stroke-dasharray:7.0,7.0;"/><polygon fill="#181818" points="1508.86,203.6694,1499.1064,202.3031,1504.0534,205.0466,1501.3099,209.9936,1508.86,203.6694" style="stroke:#181818;stroke-width:1.0;"/><text fill="#000000" font-family="sans-serif" font-size="13" lengthAdjust="spacing" textLength="45" x="1418" y="214.6045">optional</text></g><text fill="#000000" font-family="sans-serif" font-size="14" lengthAdjust="spacing" textLength="308" x="709" y="878.752">&#23637;&#31034;&#24403;&#21069;&#20195;&#30721;&#32452;&#20214;&#19982;&#35770;&#25991;&#30446;&#26631;&#32452;&#20214;&#20043;&#38388;&#30340;&#20381;&#36182;&#20851;&#31995;</text><!--SRC=[bLRHRjis57tdLn3PSsAaQRPX3mKS8-cC9KrGT-jBW82IA9a8HGeItJOO2YH1CwDRspsaxT0bNRfstOe1An1qAp9xopvcbcK_xHT6KfGZElM00OP57fvxU7bvxvK44HJ3pSNGmJ7yT6KPPjqxlUxRzE0Kk2WIX3EO7Z_AVkYaV-wdT-_tkY-oPpivftVoOF2wqt_SpWvUzv-r3VZxLyDlVis-lTCxVJhuxN6wzoPxqmM0Obz0mM5CWgQ07ecngxG1I3O9Yr2CGkWWTpE8UOjvDKvv36ysYS2bzQI9F7wJi03wY2Rb5PU74MUOYOROaeTHseW5j4o9f3WAy6I2XttKek8QlYMgb0Gib7BGbNyuVjTEy7C0uGAFFHpdthutDtTnTdvUeakS2OFDpiv-UE43SFky8__J7XHcK_q7BzEzbtcifxJAcKzJrIYYn4NwrXQPYBVMMHAx5NG6Lq94s8mRHLCG9R2s8IriYVegh7houd6Ssn8kVpFDIicclcfvb7OUPWzVJV1eWNEw5dE7uZ3NStcCAuv4Dw8SjhKDrnQvYXDvDR2Q93YKgzAphBlV_-wmVzpkRtTL6fxkf-rEzil1SFkk4SfjxD0Txmv-UZ71qKRBySWDakIX2mZ3w-nyTXln4ddSKn_7cBaONh_o6PI7YL2018__GqkQZ8MiiGONMeHwnHKW6l2OY6POSPB83fVasiOrIg98rKW5rbNk9dcTmHgAOr881fY7M6P7nJLiMrHfsAhB6FcmHb6I45-hJ3oD8MrPWHy-_o8zEfeG-Cl6cGlpxw-pPHbtEP3UDt2WIZ2Vh76w5N0c9sORPMJBh574iAMbaJaYpJ_cuHedJ5nK4mthwHmfaav1jjnrmZmPc2ijrHVNcRhD2bJ9t118j18vyJSyuljwq68on4RB6DeLSjJ9lj-USFuL99hQN_atxH01aRvhB8WBcvX6yWwDj6BQjWabeQkAspahMgA3jY5qFyNCAr9MKctZLTtT4OMBjwIX6XJXWyl4ITRP8WamcvCdh5skBXkPQqqIU-fm7XB8GOaytGfEcd29K5pukTG0WAZayv4iXAcwgUa65gqynUeRUcoH6fpUmF7L5XCan0LBOnQjSF4JwJ6cXgUpeSogZa9eyJHi4PNRLTV5IM8e2W10zqKuFNrfvAfvmkbIZmAg5HgMjiiVcgDYC69gpgWbsV3ebCL0cvSRZBMW2ju2HWK7BAlHbluxSHqnlMo08ctr3WRJVQ0C62k56oIl70iQaNA_pkcFBOmyqIq-n-GB1kGh9aI6f7ShGtL3Aee3Z3OohFp6pTFYgQVPJfU6GMPcBXLP3Z-2t9G808mB31qkXDoE-sCtL7mQxQUT_M7xtZz_t1lyzQHtyhFvbFhwotJlRNPmCjpjokyYCEaT8GjjhC-2NlT-xwGx-74dtJdC7Zr93r-L6szwl3jy-lplxLqWonmg3y6_]--></g></svg>