<?xml version="1.0" encoding="us-ascii" standalone="no"?><svg xmlns="http://www.w3.org/2000/svg" xmlns:xlink="http://www.w3.org/1999/xlink" contentStyleType="text/css" height="1377px" preserveAspectRatio="none" style="width:3395px;height:1377px;background:#FFFFFF;" version="1.1" viewBox="0 0 3395 1377" width="3395px" zoomAndPan="magnify"><defs/><g><text fill="#000000" font-family="sans-serif" font-size="14" font-weight="bold" lengthAdjust="spacing" textLength="240" x="1570.5" y="24.5332">kEmber / EMBER system-overview</text><!--cluster System--><g id="cluster_System"><rect fill="none" height="1016" rx="2.5" ry="2.5" style="stroke:#334155;stroke-width:1.0;" width="3095" x="294" y="108.1094"/><text fill="#000000" font-family="sans-serif" font-size="14" font-weight="bold" lengthAdjust="spacing" textLength="85.875" x="1798.5625" y="124.6426">kEmber &#31995;&#32479;</text></g><!--cluster 1. ???????--><g id="cluster_1. &#25509;&#21475;&#19982;&#38382;&#39064;&#32534;&#25490;"><rect fill="#EEF6FF" height="214" rx="2.5" ry="2.5" style="stroke:#334155;stroke-width:1.0;" width="1557" x="321.5" y="886.1094"/><text fill="#000000" font-family="sans-serif" font-size="14" font-weight="bold" lengthAdjust="spacing" textLength="117.0625" x="1041.4688" y="902.6426">1. &#25509;&#21475;&#19982;&#38382;&#39064;&#32534;&#25490;</text></g><!--cluster 2. ???????????????????--><g id="cluster_2. &#32454;&#20998;&#36816;&#34892;&#26102;&#65288;&#35770;&#25991;&#20027;&#27969;&#31243;&#65292;&#24453;&#24037;&#31243;&#21270;&#34917;&#20840;&#65289;"><rect fill="#FFF7D6" height="234" rx="2.5" ry="2.5" style="stroke:#334155;stroke-width:1.0;" width="728.5" x="744.5" y="199.1094"/><text fill="#000000" font-family="sans-serif" font-size="14" font-weight="bold" lengthAdjust="spacing" textLength="290.3125" x="963.5938" y="215.6426">2. &#32454;&#20998;&#36816;&#34892;&#26102;&#65288;&#35770;&#25991;&#20027;&#27969;&#31243;&#65292;&#24453;&#24037;&#31243;&#21270;&#34917;&#20840;&#65289;</text></g><!--cluster 3. ??????--><g id="cluster_3. &#21494;&#23376;&#23616;&#37096;&#27714;&#35299;"><rect fill="#F8FAFC" height="300" rx="2.5" ry="2.5" style="stroke:#334155;stroke-width:1.0;" width="695" x="1227" y="457.1094"/><text fill="#000000" font-family="sans-serif" font-size="14" font-weight="bold" lengthAdjust="spacing" textLength="102.625" x="1523.1875" y="473.6426">3. &#21494;&#23376;&#23616;&#37096;&#27714;&#35299;</text></g><!--cluster 4. ??????--><g id="cluster_4. &#31934;&#30830;&#20960;&#20309;&#20869;&#26680;"><rect fill="#F8FAFC" height="108" rx="2.5" ry="2.5" style="stroke:#334155;stroke-width:1.0;" width="1272" x="2093" y="565.1094"/><text fill="#000000" font-family="sans-serif" font-size="14" font-weight="bold" lengthAdjust="spacing" textLength="102.625" x="2677.6875" y="581.6426">4. &#31934;&#30830;&#20960;&#20309;&#20869;&#26680;</text></g><!--cluster 5. ?????--><g id="cluster_5. &#39564;&#35777;&#19982;&#22238;&#24402;"><rect fill="#F9FAFB" height="108" rx="2.5" ry="2.5" style="stroke:#334155;stroke-width:1.0;" width="211" x="318" y="520.1094"/><text fill="#000000" font-family="sans-serif" font-size="14" font-weight="bold" lengthAdjust="spacing" textLength="88.1875" x="379.4063" y="536.6426">5. &#39564;&#35777;&#19982;&#22238;&#24402;</text></g><!--entity App--><g id="elem_App"><rect fill="#F6F7F9" height="72.8281" rx="2.5" ry="2.5" style="stroke:#334155;stroke-width:0.5;" width="172" x="337.5" y="922.6094"/><text fill="#111827" font-family="sans-serif" font-size="14" lengthAdjust="spacing" textLength="56" x="395.5" y="947.1426">&#24212;&#29992;&#20837;&#21475;</text><text fill="#111827" font-family="sans-serif" font-size="14" lengthAdjust="spacing" textLength="152" x="347.5" y="964.752">src/application/main.cpp</text><text fill="#111827" font-family="sans-serif" font-size="14" lengthAdjust="spacing" textLength="102" x="372.5" y="982.3613">&#24403;&#21069;&#20026;&#28436;&#31034;/&#21344;&#20301;</text></g><!--entity IO--><g id="elem_IO"><rect fill="#F6F7F9" height="72.8281" rx="2.5" ry="2.5" style="stroke:#334155;stroke-width:0.5;" width="112" x="1750.5" y="944.6094"/><text fill="#111827" font-family="sans-serif" font-size="14" lengthAdjust="spacing" textLength="64" x="1774.5" y="969.1426">I/O &#36866;&#37197;&#23618;</text><text fill="#111827" font-family="sans-serif" font-size="14" lengthAdjust="spacing" textLength="92" x="1760.5" y="986.752">src/io/io.h/.cpp</text><text fill="#111827" font-family="sans-serif" font-size="14" lengthAdjust="spacing" textLength="70" x="1771.5" y="1004.3613">&#24403;&#21069;&#20026;&#31354;&#22771;</text></g><!--entity BoolProblem--><g id="elem_BoolProblem"><rect fill="#DDF4E4" height="72.8281" rx="2.5" ry="2.5" style="stroke:#334155;stroke-width:0.5;" width="282" x="688.5" y="922.6094"/><text fill="#111827" font-family="sans-serif" font-size="14" lengthAdjust="spacing" textLength="138" x="760.5" y="947.1426">&#38382;&#39064;&#23481;&#22120; / &#25209;&#22788;&#29702;&#20837;&#21475;</text><text fill="#111827" font-family="sans-serif" font-size="14" lengthAdjust="spacing" textLength="184" x="737.5" y="964.752">src/core/bool_problem.h/.cpp</text><text fill="#111827" font-family="sans-serif" font-size="14" lengthAdjust="spacing" textLength="262" x="698.5" y="982.3613">&#32500;&#25252; Polygon256 &#38598;&#21512;&#24182;&#25209;&#37327; buildTrees()</text></g><!--entity Export--><g id="elem_Export"><rect fill="#FFE9A8" height="72.8281" rx="2.5" ry="2.5" style="stroke:#334155;stroke-width:0.5;" width="202" x="1245" y="1010.6094"/><text fill="#111827" font-family="sans-serif" font-size="14" lengthAdjust="spacing" textLength="98" x="1297" y="1035.1426">&#32467;&#26524;&#32452;&#35013;&#19982;&#23548;&#20986;</text><text fill="#111827" font-family="sans-serif" font-size="14" lengthAdjust="spacing" textLength="182" x="1255" y="1052.752">&#25353;&#24067;&#23572;&#25351;&#31034;&#20989;&#25968;&#31579;&#36873;&#24182;&#36755;&#20986;&#38754;</text><text fill="#111827" font-family="sans-serif" font-size="14" lengthAdjust="spacing" textLength="70" x="1311" y="1070.3613">&#24403;&#21069;&#26410;&#38381;&#29615;</text></g><!--entity Subdivision--><g id="elem_Subdivision"><rect fill="#FFE9A8" height="72.8281" rx="2.5" ry="2.5" style="stroke:#334155;stroke-width:0.5;" width="138" x="760.5" y="343.6094"/><text fill="#111827" font-family="sans-serif" font-size="14" lengthAdjust="spacing" textLength="98" x="780.5" y="368.1426">&#33258;&#36866;&#24212;&#31354;&#38388;&#32454;&#20998;</text><text fill="#111827" font-family="sans-serif" font-size="14" lengthAdjust="spacing" textLength="118" x="770.5" y="385.752">AABB / kd-like split</text><text fill="#111827" font-family="sans-serif" font-size="14" lengthAdjust="spacing" textLength="112" x="773.5" y="403.3613">&#21442;&#32771;&#35770;&#25991; 4.1 / 4.2</text></g><!--entity RefWNV--><g id="elem_RefWNV"><rect fill="#FFE9A8" height="72.8281" rx="2.5" ry="2.5" style="stroke:#334155;stroke-width:0.5;" width="222" x="1235" y="343.6094"/><text fill="#111827" font-family="sans-serif" font-size="14" lengthAdjust="spacing" textLength="123" x="1284.5" y="368.1426">&#21442;&#32771;&#28857;&#19982; WNV &#20256;&#25773;</text><text fill="#111827" font-family="sans-serif" font-size="14" lengthAdjust="spacing" textLength="202" x="1245" y="385.752">local ref point + segment tracing</text><text fill="#111827" font-family="sans-serif" font-size="14" lengthAdjust="spacing" textLength="124" x="1284" y="403.3613">&#21442;&#32771;&#35770;&#25991; 4.2.2 / 4.4</text></g><!--entity Runtime--><g id="elem_Runtime"><rect fill="#FFE9A8" height="72.8281" rx="2.5" ry="2.5" style="stroke:#334155;stroke-width:0.5;" width="170" x="1261" y="235.6094"/><text fill="#111827" font-family="sans-serif" font-size="14" lengthAdjust="spacing" textLength="98" x="1297" y="260.1426">&#26089;&#20572;&#19982;&#24182;&#34892;&#35843;&#24230;</text><text fill="#111827" font-family="sans-serif" font-size="14" lengthAdjust="spacing" textLength="150" x="1271" y="277.752">work stealing / early-out</text><text fill="#111827" font-family="sans-serif" font-size="14" lengthAdjust="spacing" textLength="80" x="1306" y="295.3613">&#21442;&#32771;&#35770;&#25991; 4.5</text></g><!--entity BSP--><g id="elem_BSP"><rect fill="#DDF4E4" height="55.2188" rx="2.5" ry="2.5" style="stroke:#334155;stroke-width:0.5;" width="171" x="1260.5" y="685.6094"/><text fill="#111827" font-family="sans-serif" font-size="14" lengthAdjust="spacing" textLength="91" x="1300.5" y="710.1426">&#23616;&#37096; BSP &#26500;&#24314;</text><text fill="#111827" font-family="sans-serif" font-size="14" lengthAdjust="spacing" textLength="151" x="1270.5" y="727.752">src/algorithm/bsp.h/.cpp</text></g><!--entity Clip--><g id="elem_Clip"><rect fill="#DDF4E4" height="55.2188" rx="2.5" ry="2.5" style="stroke:#334155;stroke-width:0.5;" width="197" x="1708" y="601.6094"/><text fill="#111827" font-family="sans-serif" font-size="14" lengthAdjust="spacing" textLength="140" x="1736.5" y="626.1426">&#30456;&#20132;&#36733;&#20307;&#19982;&#22810;&#36793;&#24418;&#35009;&#21098;</text><text fill="#111827" font-family="sans-serif" font-size="14" lengthAdjust="spacing" textLength="177" x="1718" y="643.752">src/geometry/clipping.h/.cpp</text></g><!--entity Winding--><g id="elem_Winding"><rect fill="#FFF4CC" height="72.8281" rx="2.5" ry="2.5" style="stroke:#334155;stroke-width:0.5;" width="199" x="1707" y="493.6094"/><text fill="#111827" font-family="sans-serif" font-size="14" lengthAdjust="spacing" textLength="143" x="1735" y="518.1426">WNV / WNTV &#29366;&#24577;&#36733;&#20307;</text><text fill="#111827" font-family="sans-serif" font-size="14" lengthAdjust="spacing" textLength="173" x="1720" y="535.752">src/math/winding_number_f.h</text><text fill="#111827" font-family="sans-serif" font-size="14" lengthAdjust="spacing" textLength="179" x="1717" y="553.3613">src/algorithm/WNV_tracing.h</text></g><!--entity Classify--><g id="elem_Classify"><rect fill="#FFE9A8" height="72.8281" rx="2.5" ry="2.5" style="stroke:#334155;stroke-width:0.5;" width="206" x="1243" y="577.6094"/><text fill="#111827" font-family="sans-serif" font-size="14" lengthAdjust="spacing" textLength="126" x="1283" y="602.1426">&#21494;&#38754;&#20998;&#31867;&#19982;&#24067;&#23572;&#31579;&#36873;</text><text fill="#111827" font-family="sans-serif" font-size="14" lengthAdjust="spacing" textLength="186" x="1253" y="619.752">segment tracing + f_op(WNV)</text><text fill="#111827" font-family="sans-serif" font-size="14" lengthAdjust="spacing" textLength="80" x="1306" y="637.3613">&#21442;&#32771;&#35770;&#25991; 4.4</text></g><!--entity Geometry--><g id="elem_Geometry"><rect fill="#DDF4E4" height="55.2188" rx="2.5" ry="2.5" style="stroke:#334155;stroke-width:0.5;" width="232" x="2109" y="601.6094"/><text fill="#111827" font-family="sans-serif" font-size="14" lengthAdjust="spacing" textLength="122" x="2164" y="626.1426">&#22810;&#36793;&#24418; / &#32447;&#27573; / &#30452;&#32447;</text><text fill="#111827" font-family="sans-serif" font-size="14" lengthAdjust="spacing" textLength="212" x="2119" y="643.752">src/geometry/geometry256.h/.cpp</text></g><!--entity PlaneGeom--><g id="elem_PlaneGeom"><rect fill="#DDF4E4" height="55.2188" rx="2.5" ry="2.5" style="stroke:#334155;stroke-width:0.5;" width="244" x="2476" y="601.6094"/><text fill="#111827" font-family="sans-serif" font-size="14" lengthAdjust="spacing" textLength="150" x="2523" y="626.1426">&#24179;&#38754; / &#40784;&#27425;&#28857; / &#19977;&#24179;&#38754;&#20132;</text><text fill="#111827" font-family="sans-serif" font-size="14" lengthAdjust="spacing" textLength="224" x="2486" y="643.752">src/geometry/plane_geometry256.h</text></g><!--entity Math256--><g id="elem_Math256"><rect fill="#DDF4E4" height="55.2188" rx="2.5" ry="2.5" style="stroke:#334155;stroke-width:0.5;" width="184" x="2906" y="601.6094"/><text fill="#111827" font-family="sans-serif" font-size="14" lengthAdjust="spacing" textLength="164" x="2916" y="626.1426">256 &#20301;&#25972;&#25968; / &#21521;&#37327; / &#34892;&#21015;&#24335;</text><text fill="#111827" font-family="sans-serif" font-size="14" lengthAdjust="spacing" textLength="125" x="2935.5" y="643.752">src/math/math256.h</text></g><!--entity Slim--><g id="elem_Slim"><rect fill="#E5E7EB" height="55.2188" rx="2.5" ry="2.5" style="stroke:#334155;stroke-width:0.5;" width="151" x="3198" y="601.6094"/><text fill="#111827" font-family="sans-serif" font-size="14" lengthAdjust="spacing" textLength="61" x="3243" y="626.1426">slimcpplib</text><text fill="#111827" font-family="sans-serif" font-size="14" lengthAdjust="spacing" textLength="131" x="3208" y="643.752">include/slimcpplib/*.h</text></g><!--entity Tests--><g id="elem_Tests"><rect fill="#DDF4E4" height="55.2188" rx="2.5" ry="2.5" style="stroke:#334155;stroke-width:0.5;" width="179" x="334" y="556.6094"/><text fill="#111827" font-family="sans-serif" font-size="14" lengthAdjust="spacing" textLength="124" x="361.5" y="581.1426">&#21333;&#20803;&#27979;&#35797; / &#34892;&#20026;&#26679;&#20363;</text><text fill="#111827" font-family="sans-serif" font-size="14" lengthAdjust="spacing" textLength="159" x="344" y="598.752">src/tests/math256_tests.*</text></g><!--entity Caller--><g id="elem_Caller"><ellipse cx="68" cy="928.6094" fill="#F1F1F1" rx="8" ry="8" style="stroke:#181818;stroke-width:0.5;"/><path d="M68,936.6094 L68,963.6094 M55,944.6094 L81,944.6094 M68,963.6094 L55,978.6094 M68,963.6094 L81,978.6094 " fill="none" style="stroke:#181818;stroke-width:0.5;"/><text fill="#000000" font-family="sans-serif" font-size="14" lengthAdjust="spacing" textLength="124" x="6" y="994.6426">&#35843;&#29992;&#26041; / CLI / Demo</text></g><!--entity Input--><g id="elem_Input"><path d="M1258,54.6094 C1258,44.6094 1346,44.6094 1346,44.6094 C1346,44.6094 1434,44.6094 1434,54.6094 L1434,81.2188 C1434,91.2188 1346,91.2188 1346,91.2188 C1346,91.2188 1258,91.2188 1258,81.2188 L1258,54.6094 " fill="#F1F1F1" style="stroke:#181818;stroke-width:0.5;"/><path d="M1258,54.6094 C1258,64.6094 1346,64.6094 1346,64.6094 C1346,64.6094 1434,64.6094 1434,54.6094 " fill="none" style="stroke:#181818;stroke-width:0.5;"/><text fill="#000000" font-family="sans-serif" font-size="14" lengthAdjust="spacing" textLength="156" x="1268" y="83.1426">&#36755;&#20837;&#32593;&#26684; / Polygon Soup</text></g><!--entity Output--><g id="elem_Output"><path d="M2142,1150.6094 C2142,1140.6094 2225,1140.6094 2225,1140.6094 C2225,1140.6094 2308,1140.6094 2308,1150.6094 L2308,1177.2188 C2308,1187.2188 2225,1187.2188 2225,1187.2188 C2225,1187.2188 2142,1187.2188 2142,1177.2188 L2142,1150.6094 " fill="#F1F1F1" style="stroke:#181818;stroke-width:0.5;"/><path d="M2142,1150.6094 C2142,1160.6094 2225,1160.6094 2225,1160.6094 C2225,1160.6094 2308,1160.6094 2308,1150.6094 " fill="none" style="stroke:#181818;stroke-width:0.5;"/><text fill="#000000" font-family="sans-serif" font-size="14" lengthAdjust="spacing" textLength="146" x="2152" y="1179.1426">&#36755;&#20986;&#32467;&#26524; / Result Mesh</text></g><g id="elem_GMN58"><path d="M629,1140.6094 L629,1199.6641 L1030,1199.6641 L1030,1150.6094 L1020,1140.6094 L629,1140.6094 " fill="#FFF7D6" style="stroke:#D4A017;stroke-width:0.5;"/><path d="M1020,1140.6094 L1020,1150.6094 L1030,1150.6094 L1020,1140.6094 " fill="#FFF7D6" style="stroke:#D4A017;stroke-width:1.0;"/><text fill="#000000" font-family="sans-serif" font-size="13" lengthAdjust="spacing" textLength="143" x="753.5" y="1159.1045">&#35770;&#25991;&#39640;&#23618;&#27969;&#31243;&#30340;&#20027;&#24178;&#26159;&#65306;</text><text fill="#000000" font-family="sans-serif" font-size="13" lengthAdjust="spacing" textLength="380" x="635" y="1175.4561">&#36882;&#24402;&#32454;&#20998; -&gt; &#21442;&#32771;&#28857;&#20256;&#25773; -&gt; &#23616;&#37096; BSP -&gt; WNV &#20998;&#31867; -&gt; &#32467;&#26524;&#31579;&#36873;&#12290;</text><text fill="#000000" font-family="sans-serif" font-size="13" lengthAdjust="spacing" textLength="356" x="647" y="1191.8076">&#24403;&#21069;&#20179;&#24211;&#24050;&#32463;&#23454;&#29616;&#20854;&#20013;&#26368;&#24213;&#23618;&#30340;&#31934;&#30830;&#20960;&#20309;&#12289;&#35009;&#21098;&#19982;&#23616;&#37096; BSP&#12290;</text></g><!--link Caller to App--><g id="link_Caller_App"><path d="M130.17,959.1094 C187.38,959.1094 267.35,959.1094 331.27,959.1094 " fill="none" id="Caller-to-App" style="stroke:#475569;stroke-width:1.0;"/><polygon fill="#475569" points="337.27,959.1094,328.27,955.1094,332.27,959.1094,328.27,963.1094,337.27,959.1094" style="stroke:#475569;stroke-width:1.0;"/><text fill="#000000" font-family="sans-serif" font-size="13" lengthAdjust="spacing" textLength="116" x="161" y="955.6045">&#25552;&#20132;&#22330;&#26223; / &#36816;&#31639;&#35831;&#27714;</text></g><!--link Input to IO--><g id="link_Input_IO"><path d="M1387.06,91.7394 C1459.99,137.2894 1612.8,244.9494 1677,382.1094 C1720.33,474.6894 1672.99,744.7194 1707,841.1094 C1720.74,880.0694 1744.7092,913.4219 1767.3092,939.9519 " fill="none" id="Input-to-IO" style="stroke:#475569;stroke-width:1.0;"/><polygon fill="#475569" points="1771.2,944.5194,1768.4087,935.0743,1767.9576,940.7132,1762.3188,940.2621,1771.2,944.5194" style="stroke:#475569;stroke-width:1.0;"/><text fill="#000000" font-family="sans-serif" font-size="13" lengthAdjust="spacing" textLength="52" x="1557" y="167.6045">&#35835;&#20837;&#27169;&#22411;</text></g><!--link IO to BoolProblem--><g id="link_IO_BoolProblem"><path d="M1750.49,978.2094 C1727.74,977.0894 1701.11,975.8994 1677,975.1094 C1428.36,966.9594 1144.4796,962.6616 976.5796,960.6416 " fill="none" id="IO-to-BoolProblem" style="stroke:#475569;stroke-width:1.0;"/><polygon fill="#475569" points="970.58,960.5694,979.5312,964.6774,975.5796,960.6295,979.6275,956.6779,970.58,960.5694" style="stroke:#475569;stroke-width:1.0;"/><text fill="#000000" font-family="sans-serif" font-size="13" lengthAdjust="spacing" textLength="128" x="1282" y="961.6045">&#32452;&#35013; Polygon256 &#38598;&#21512;</text></g><!--link App to BoolProblem--><g id="link_App_BoolProblem"><path d="M509.68,959.1094 C561.43,959.1094 622.74,959.1094 682.18,959.1094 " fill="none" id="App-to-BoolProblem" style="stroke:#475569;stroke-width:1.0;"/><polygon fill="#475569" points="688.18,959.1094,679.18,955.1094,683.18,959.1094,679.18,963.1094,688.18,959.1094" style="stroke:#475569;stroke-width:1.0;"/><text fill="#000000" font-family="sans-serif" font-size="13" lengthAdjust="spacing" textLength="52" x="546" y="955.6045">&#39537;&#21160;&#27714;&#35299;</text></g><!--link BoolProblem to BSP--><g id="link_BoolProblem_BSP"><path d="M960.49,922.5494 C1034.6,899.0494 1127.8,864.8994 1205,822.1094 C1246.22,799.2594 1283.6923,768.7719 1310.7823,744.7319 " fill="none" id="BoolProblem-to-BSP" style="stroke:#475569;stroke-width:1.0;"/><polygon fill="#475569" points="1315.27,740.7494,1305.8834,743.7313,1311.5302,744.0681,1311.1934,749.7149,1315.27,740.7494" style="stroke:#475569;stroke-width:1.0;"/><text fill="#000000" font-family="sans-serif" font-size="13" lengthAdjust="spacing" textLength="65" x="1100" y="802.6045">&#24403;&#21069;&#20027;&#36335;&#24452;</text><text fill="#000000" font-family="sans-serif" font-size="13" lengthAdjust="spacing" textLength="143" x="1061" y="818.9561">&#20026;&#27599;&#20010;&#22810;&#36793;&#24418;&#24314;&#31435;&#23616;&#37096;&#26641;</text></g><!--link BoolProblem to Subdivision--><g id="link_BoolProblem_Subdivision"><path d="M829.5,922.4494 C829.5,818.2894 829.5,527.3994 829.5,422.9794 " fill="none" id="BoolProblem-to-Subdivision" style="stroke:#475569;stroke-width:1.0;stroke-dasharray:7.0,7.0;"/><polygon fill="#475569" points="829.5,416.9794,825.5,425.9794,829.5,421.9794,833.5,425.9794,829.5,416.9794" style="stroke:#475569;stroke-width:1.0;"/><text fill="#000000" font-family="sans-serif" font-size="13" lengthAdjust="spacing" textLength="78" x="770.5" y="667.1045">&#26410;&#26469;&#20027;&#25511;&#20837;&#21475;</text><text fill="#000000" font-family="sans-serif" font-size="13" lengthAdjust="spacing" textLength="134" x="742.5" y="683.4561">computeAABBPlanes()</text></g><!--link Subdivision to Clip--><g id="link_Subdivision_Clip"><path d="M898.54,392.9394 C976.06,407.5094 1106.59,431.8794 1219,452.1094 C1320.68,470.4094 1592.33,472.8994 1677,532.1094 C1698.87,547.3994 1687.26,566.1594 1707,584.1094 C1714.3,590.7494 1717.5405,593.5825 1726.3605,598.6225 " fill="none" id="Subdivision-to-Clip" style="stroke:#475569;stroke-width:1.0;stroke-dasharray:7.0,7.0;"/><polygon fill="#475569" points="1731.57,601.5994,1725.7404,593.6612,1727.2288,599.1187,1721.7713,600.6071,1731.57,601.5994" style="stroke:#475569;stroke-width:1.0;"/><text fill="#000000" font-family="sans-serif" font-size="13" lengthAdjust="spacing" textLength="130" x="1281" y="448.6045">&#25353;&#20998;&#21106;&#24179;&#38754;&#35009;&#21098;&#23376;&#38382;&#39064;</text></g><!--link Subdivision to RefWNV--><g id="link_Subdivision_RefWNV"><path d="M898.84,381.8594 C973.91,383.5494 1098.05,385.6394 1205,384.1094 C1214.73,383.9694 1218.8315,383.9156 1228.9615,383.6856 " fill="none" id="Subdivision-to-RefWNV" style="stroke:#475569;stroke-width:1.0;stroke-dasharray:7.0,7.0;"/><polygon fill="#475569" points="1234.96,383.5494,1225.8715,379.7547,1229.9613,383.6629,1226.0531,387.7526,1234.96,383.5494" style="stroke:#475569;stroke-width:1.0;"/><text fill="#000000" font-family="sans-serif" font-size="13" lengthAdjust="spacing" textLength="104" x="1080.5" y="380.6045">&#26356;&#26032;&#23376;&#38382;&#39064;&#21442;&#32771;&#28857;</text></g><!--link Subdivision to Runtime--><g id="link_Subdivision_Runtime"><path d="M898.73,374.9094 C974.49,368.0694 1099.98,353.5594 1205,326.1094 C1223.4,321.2994 1237.0672,316.9332 1255.2472,310.1632 " fill="none" id="Subdivision-to-Runtime" style="stroke:#475569;stroke-width:1.0;stroke-dasharray:7.0,7.0;"/><polygon fill="#475569" points="1260.87,308.0694,1251.0399,307.4616,1256.1843,309.8143,1253.8317,314.9587,1260.87,308.0694" style="stroke:#475569;stroke-width:1.0;"/><text fill="#000000" font-family="sans-serif" font-size="13" lengthAdjust="spacing" textLength="103" x="1081" y="322.6045">&#27966;&#21457; / &#21098;&#26525;&#23376;&#38382;&#39064;</text></g><!--link Runtime to Subdivision--><g id="link_Runtime_Subdivision"><path d="M1260.7,276.9594 C1203.57,281.3694 1126.63,289.4994 1060,304.1094 C1004.55,316.2694 949.2587,334.7115 904.1287,351.3715 " fill="none" id="Runtime-to-Subdivision" style="stroke:#475569;stroke-width:1.0;stroke-dasharray:7.0,7.0;"/><polygon fill="#475569" points="898.5,353.4494,908.3283,354.085,903.1906,351.7178,905.5578,346.5801,898.5,353.4494" style="stroke:#475569;stroke-width:1.0;"/><text fill="#000000" font-family="sans-serif" font-size="13" lengthAdjust="spacing" textLength="140" x="1062.5" y="279.6045">work stealing / &#32487;&#32493;&#36882;&#24402;</text></g><!--link Subdivision to BSP--><g id="link_Subdivision_BSP"><path d="M898.55,415.8594 C994.75,467.6394 1163.46,563.3794 1205,619.1094 C1218.54,637.2694 1203.51,651.5794 1219,668.1094 C1230.28,680.1394 1239.4594,686.6328 1254.8394,693.1028 " fill="none" id="Subdivision-to-BSP" style="stroke:#475569;stroke-width:1.0;stroke-dasharray:7.0,7.0;"/><polygon fill="#475569" points="1260.37,695.4294,1253.6252,688.2525,1255.7612,693.4906,1250.5231,695.6266,1260.37,695.4294" style="stroke:#475569;stroke-width:1.0;"/><text fill="#000000" font-family="sans-serif" font-size="13" lengthAdjust="spacing" textLength="130" x="1067.5" y="510.6045">&#21040;&#36798;&#21494;&#23376;&#21518;&#36716;&#23616;&#37096;&#27714;&#35299;</text></g><!--link BSP to Clip--><g id="link_BSP_Clip"><path d="M1431.63,697.6094 C1509.77,683.2894 1619.9082,663.1106 1701.9482,648.0806 " fill="none" id="BSP-to-Clip" style="stroke:#475569;stroke-width:1.0;"/><polygon fill="#475569" points="1707.85,646.9994,1698.2765,644.6867,1702.9319,647.9004,1699.7182,652.5557,1707.85,646.9994" style="stroke:#475569;stroke-width:1.0;"/><text fill="#000000" font-family="sans-serif" font-size="13" lengthAdjust="spacing" textLength="186" x="1490" y="650.6045">addSegment / clipLeafGeometry</text></g><!--link BSP to Geometry--><g id="link_BSP_Geometry"><path d="M1403.77,740.6694 C1429.26,751.8994 1460.06,763.8994 1489,771.1094 C1679.42,818.5494 1736.1,823.3494 1930,793.1094 C1997.77,782.5394 2016.51,778.4394 2077,746.1094 C2122.45,721.8194 2163.4045,687.0342 2191.4645,660.8342 " fill="none" id="BSP-to-Geometry" style="stroke:#475569;stroke-width:1.0;"/><polygon fill="#475569" points="2195.85,656.7394,2186.5419,659.9579,2192.1954,660.1517,2192.0016,665.8052,2195.85,656.7394" style="stroke:#475569;stroke-width:1.0;"/><text fill="#000000" font-family="sans-serif" font-size="13" lengthAdjust="spacing" textLength="137" x="1738" y="789.6045">&#21494;&#33410;&#28857;&#20445;&#23384; Polygon256</text></g><!--link Clip to Geometry--><g id="link_Clip_Geometry"><path d="M1905.15,629.1094 C1966.1,629.1094 2038.86,629.1094 2102.85,629.1094 " fill="none" id="Clip-to-Geometry" style="stroke:#475569;stroke-width:1.0;"/><polygon fill="#475569" points="2108.85,629.1094,2099.85,625.1094,2103.85,629.1094,2099.85,633.1094,2108.85,629.1094" style="stroke:#475569;stroke-width:1.0;"/><text fill="#000000" font-family="sans-serif" font-size="13" lengthAdjust="spacing" textLength="117" x="1949" y="625.6045">&#20132;&#32447;&#31471;&#28857;&#19982;&#35009;&#21098;&#32467;&#26524;</text></g><!--link Classify to Geometry--><g id="link_Classify_Geometry"><path d="M1449.18,643.6594 C1460.99,650.2694 1472.01,658.3194 1481,668.1094 C1489.18,677.0094 1479.27,686.9294 1489,694.1094 C1697.66,848.2194 2030.6644,720.3685 2163.0044,659.1485 " fill="none" id="Classify-to-Geometry" style="stroke:#475569;stroke-width:1.0;stroke-dasharray:7.0,7.0;"/><polygon fill="#475569" points="2168.45,656.6294,2158.6023,656.7776,2163.912,658.7286,2161.9611,664.0384,2168.45,656.6294" style="stroke:#475569;stroke-width:1.0;"/><text fill="#000000" font-family="sans-serif" font-size="13" lengthAdjust="spacing" textLength="78" x="1767.5" y="739.6045">&#35835;&#21462;&#21494;&#38754;&#20960;&#20309;</text></g><!--link Classify to Winding--><g id="link_Classify_Winding"><path d="M1449.04,595.4194 C1525.96,581.3194 1624.9383,563.1909 1701.0083,549.2509 " fill="none" id="Classify-to-Winding" style="stroke:#475569;stroke-width:1.0;stroke-dasharray:7.0,7.0;"/><polygon fill="#475569" points="1706.91,548.1694,1697.3364,545.8571,1701.9919,549.0706,1698.7784,553.7261,1706.91,548.1694" style="stroke:#475569;stroke-width:1.0;"/><text fill="#000000" font-family="sans-serif" font-size="13" lengthAdjust="spacing" textLength="121" x="1522.5" y="551.6045">&#35745;&#31639; WNVF / WNVB</text></g><!--link RefWNV to Winding--><g id="link_RefWNV_Winding"><path d="M1457.24,399.9094 C1522.4,413.3894 1605.82,433.7694 1677,461.1094 C1699.93,469.9194 1718.6745,479.0647 1739.6445,490.6147 " fill="none" id="RefWNV-to-Winding" style="stroke:#475569;stroke-width:1.0;stroke-dasharray:7.0,7.0;"/><polygon fill="#475569" points="1744.9,493.5094,1738.9465,485.6636,1740.5204,491.0971,1735.0869,492.671,1744.9,493.5094" style="stroke:#475569;stroke-width:1.0;"/><text fill="#000000" font-family="sans-serif" font-size="13" lengthAdjust="spacing" textLength="87" x="1539.5" y="404.6045">&#20256;&#25773;&#21442;&#32771; WNV</text></g><!--link Winding to Geometry--><g id="link_Winding_Geometry"><path d="M1906.2,553.5694 C1966.95,568.0094 2039.2326,585.1921 2102.8126,600.3021 " fill="none" id="Winding-to-Geometry" style="stroke:#475569;stroke-width:1.0;stroke-dasharray:7.0,7.0;"/><polygon fill="#475569" points="2108.65,601.6894,2100.8187,595.7168,2103.7855,600.5333,2098.969,603.5001,2108.65,601.6894" style="stroke:#475569;stroke-width:1.0;"/><text fill="#000000" font-family="sans-serif" font-size="13" lengthAdjust="spacing" textLength="137" x="1939" y="559.6045">&#29366;&#24577;&#38468;&#30528;&#20110; Polygon256</text></g><!--link Geometry to PlaneGeom--><g id="link_Geometry_PlaneGeom"><path d="M2341.1,629.1094 C2383.86,629.1094 2426.49,629.1094 2469.79,629.1094 " fill="none" id="Geometry-to-PlaneGeom" style="stroke:#475569;stroke-width:1.0;"/><polygon fill="#475569" points="2475.79,629.1094,2466.79,625.1094,2470.79,629.1094,2466.79,633.1094,2475.79,629.1094" style="stroke:#475569;stroke-width:1.0;"/><text fill="#000000" font-family="sans-serif" font-size="13" lengthAdjust="spacing" textLength="73" x="2372" y="625.6045">&#28857;/&#32447;/&#38754;&#22522;&#20803;</text></g><!--link PlaneGeom to Math256--><g id="link_PlaneGeom_Math256"><path d="M2720.03,629.1094 C2779.84,629.1094 2844.8,629.1094 2899.93,629.1094 " fill="none" id="PlaneGeom-to-Math256" style="stroke:#475569;stroke-width:1.0;"/><polygon fill="#475569" points="2905.93,629.1094,2896.93,625.1094,2900.93,629.1094,2896.93,633.1094,2905.93,629.1094" style="stroke:#475569;stroke-width:1.0;"/><text fill="#000000" font-family="sans-serif" font-size="13" lengthAdjust="spacing" textLength="124" x="2751" y="625.6045">determinant / classify</text></g><!--link Math256 to Slim--><g id="link_Math256_Slim"><path d="M3090.07,629.1094 C3125.04,629.1094 3158.5,629.1094 3191.76,629.1094 " fill="none" id="Math256-to-Slim" style="stroke:#475569;stroke-width:1.0;"/><polygon fill="#475569" points="3197.76,629.1094,3188.76,625.1094,3192.76,629.1094,3188.76,633.1094,3197.76,629.1094" style="stroke:#475569;stroke-width:1.0;"/><text fill="#000000" font-family="sans-serif" font-size="13" lengthAdjust="spacing" textLength="46" x="3121" y="625.6045">int256_t</text></g><!--link Classify to Export--><g id="link_Classify_Export"><path d="M1242.76,644.3494 C1187.05,666.8294 1123.92,703.8894 1095,762.1094 C1044.89,862.9794 1136.18,906.7794 1219,983.1094 C1230.26,993.4794 1238.31,999.5961 1251.93,1007.4361 " fill="none" id="Classify-to-Export" style="stroke:#475569;stroke-width:1.0;stroke-dasharray:7.0,7.0;"/><polygon fill="#475569" points="1257.13,1010.4294,1251.3255,1002.4728,1252.7966,1007.935,1247.3344,1009.4062,1257.13,1010.4294" style="stroke:#475569;stroke-width:1.0;"/><text fill="#000000" font-family="sans-serif" font-size="13" lengthAdjust="spacing" textLength="141" x="1062" y="776.6045">&#20445;&#30041; / &#32763;&#36716; / &#20002;&#24323;&#36755;&#20986;&#38754;</text></g><!--link BoolProblem to Export--><g id="link_BoolProblem_Export"><path d="M970.75,983.0994 C1057.48,997.9294 1160.8558,1015.6184 1238.8958,1028.9584 " fill="none" id="BoolProblem-to-Export" style="stroke:#475569;stroke-width:1.0;stroke-dasharray:7.0,7.0;"/><polygon fill="#475569" points="1244.81,1029.9694,1236.6127,1024.5101,1239.8815,1029.1269,1235.2647,1032.3957,1244.81,1029.9694" style="stroke:#475569;stroke-width:1.0;"/><text fill="#000000" font-family="sans-serif" font-size="13" lengthAdjust="spacing" textLength="65" x="1100" y="997.6045">&#27719;&#24635;&#23376;&#32467;&#26524;</text></g><!--link Export to IO--><g id="link_Export_IO"><path d="M1447.05,1032.7094 C1540.2,1019.2994 1669.6512,1000.6641 1744.5512,989.8841 " fill="none" id="Export-to-IO" style="stroke:#475569;stroke-width:1.0;stroke-dasharray:7.0,7.0;"/><polygon fill="#475569" points="1750.49,989.0294,1741.012,986.3523,1745.541,989.7417,1742.1516,994.2707,1750.49,989.0294" style="stroke:#475569;stroke-width:1.0;"/><text fill="#000000" font-family="sans-serif" font-size="13" lengthAdjust="spacing" textLength="129" x="1518.5" y="997.6045">&#24207;&#21015;&#21270;&#32593;&#26684; / &#35843;&#35797;&#20135;&#29289;</text></g><!--link IO to Output--><g id="link_IO_Output"><path d="M1862.81,1005.4094 C1943.13,1040.6994 2085.6271,1103.3053 2164.9471,1138.1653 " fill="none" id="IO-to-Output" style="stroke:#475569;stroke-width:1.0;"/><polygon fill="#475569" points="2170.44,1140.5794,2163.81,1133.2963,2165.8626,1138.5677,2160.5912,1140.6202,2170.44,1140.5794" style="stroke:#475569;stroke-width:1.0;"/><text fill="#000000" font-family="sans-serif" font-size="13" lengthAdjust="spacing" textLength="52" x="1981.5" y="1037.6045">&#20889;&#20986;&#32467;&#26524;</text></g><!--link Tests to BoolProblem--><g id="link_Tests_BoolProblem"><path d="M428.09,611.6394 C437.03,668.8594 465.57,801.2894 545,873.1094 C584.39,908.7294 632.2914,928.1754 682.3914,940.4154 " fill="none" id="Tests-to-BoolProblem" style="stroke:#475569;stroke-width:1.0;stroke-dasharray:7.0,7.0;"/><polygon fill="#475569" points="688.22,941.8394,680.4265,935.8177,683.3629,940.6527,678.5278,943.5891,688.22,941.8394" style="stroke:#475569;stroke-width:1.0;"/></g><!--link Tests to BSP--><g id="link_Tests_BSP"><path d="M513.18,596.5394 C690.49,621.3894 1080.648,676.0668 1254.498,700.4268 " fill="none" id="Tests-to-BSP" style="stroke:#475569;stroke-width:1.0;stroke-dasharray:7.0,7.0;"/><polygon fill="#475569" points="1260.44,701.2594,1252.0821,696.0492,1255.4884,700.5655,1250.972,703.9718,1260.44,701.2594" style="stroke:#475569;stroke-width:1.0;"/></g><!--link Tests to Clip--><g id="link_Tests_Clip"><path d="M513.14,579.8794 C695.69,571.3894 1126.83,552.5694 1489,546.1094 C1530.77,545.3594 1639.4,527.8894 1677,546.1094 C1696.36,555.4894 1690.07,570.8194 1707,584.1094 C1715.28,590.6094 1719.3548,593.5979 1728.9448,598.7079 " fill="none" id="Tests-to-Clip" style="stroke:#475569;stroke-width:1.0;stroke-dasharray:7.0,7.0;"/><polygon fill="#475569" points="1734.24,601.5294,1728.1782,593.767,1729.8273,599.1781,1724.4162,600.8272,1734.24,601.5294" style="stroke:#475569;stroke-width:1.0;"/></g><!--link Tests to Geometry--><g id="link_Tests_Geometry"><path d="M431.27,556.4994 C449.78,487.2794 508.11,305.7294 629,219.1094 C702.3,166.5894 738.32,182.1094 828.5,182.1094 C828.5,182.1094 828.5,182.1094 1807.5,182.1094 C2037.94,182.1094 2175.0965,498.4177 2211.9765,595.8777 " fill="none" id="Tests-to-Geometry" style="stroke:#475569;stroke-width:1.0;stroke-dasharray:7.0,7.0;"/><polygon fill="#475569" points="2214.1,601.4894,2214.6558,591.6562,2212.3304,596.813,2207.1736,594.4876,2214.1,601.4894" style="stroke:#475569;stroke-width:1.0;"/></g><!--link Tests to PlaneGeom--><g id="link_Tests_PlaneGeom"><path d="M479.02,611.6694 C519.64,631.4494 576.86,657.7494 629,676.1094 C815.69,741.8294 864.64,756.4094 1060,788.1094 C1506.2,860.5094 1636.85,903.0794 2077,800.1094 C2241.25,761.6894 2422.1133,696.4758 2521.0233,658.7858 " fill="none" id="Tests-to-PlaneGeom" style="stroke:#475569;stroke-width:1.0;stroke-dasharray:7.0,7.0;"/><polygon fill="#475569" points="2526.63,656.6494,2516.7956,656.1163,2521.9577,658.4298,2519.6442,663.5919,2526.63,656.6494" style="stroke:#475569;stroke-width:1.0;"/></g><!--link Tests to Math256--><g id="link_Tests_Math256"><path d="M430.18,556.3694 C443.07,498.2294 478.68,361.0394 545,265.1094 C622.81,152.5594 691.68,145.1094 828.5,145.1094 C828.5,145.1094 828.5,145.1094 2599,145.1094 C2836.98,145.1094 2957.1576,492.756 2987.5876,595.596 " fill="none" id="Tests-to-Math256" style="stroke:#475569;stroke-width:1.0;stroke-dasharray:7.0,7.0;"/><polygon fill="#475569" points="2989.29,601.3494,2990.572,591.5843,2987.8713,596.5549,2982.9008,593.8542,2989.29,601.3494" style="stroke:#475569;stroke-width:1.0;"/></g><!--link GMN58 to Subdivision--><g id="link_GMN58_Subdivision"><path d="M657.73,1140.5194 C628.22,1127.5694 601.24,1109.0594 583,1082.6094 C526.74,1001.0094 545.98,728.5494 583,636.6094 C621.58,540.7894 714.96,460.6894 775.07,416.6694 " fill="none" id="GMN58-Subdivision" style="stroke:#475569;stroke-width:1.0;stroke-dasharray:7.0,7.0;"/></g><rect fill="none" height="119.6563" id="_legend" rx="7.5" ry="7.5" style="stroke:#000000;stroke-width:1.0;" width="278.875" x="3090.125" y="1217.6641"/><text fill="#000000" font-family="sans-serif" font-size="14" font-weight="bold" lengthAdjust="spacing" textLength="28.875" x="3099.125" y="1239.1973">&#39068;&#33394;</text><text fill="#000000" font-family="sans-serif" font-size="14" font-weight="bold" lengthAdjust="spacing" textLength="28.875" x="3136" y="1239.1973">&#21547;&#20041;</text><rect fill="#DDF4E4" height="17.6094" style="stroke:none;stroke-width:1.0;" width="36.875" x="3095.125" y="1242.2734"/><text fill="#000000" font-family="sans-serif" font-size="14" lengthAdjust="spacing" textLength="4" x="3095.125" y="1256.8066">&#160;</text><text fill="#000000" font-family="sans-serif" font-size="14" lengthAdjust="spacing" textLength="112" x="3136" y="1256.8066">&#24403;&#21069;&#20179;&#24211;&#24050;&#26377;&#23454;&#29616;</text><rect fill="#FFF4CC" height="17.6094" style="stroke:none;stroke-width:1.0;" width="36.875" x="3095.125" y="1259.8828"/><text fill="#000000" font-family="sans-serif" font-size="14" lengthAdjust="spacing" textLength="4" x="3095.125" y="1274.416">&#160;</text><text fill="#000000" font-family="sans-serif" font-size="14" lengthAdjust="spacing" textLength="210" x="3136" y="1274.416">&#24050;&#26377;&#31867;&#22411;&#25110;&#21344;&#20301;&#65292;&#20294;&#27969;&#31243;&#23578;&#26410;&#38381;&#29615;</text><rect fill="#F6F7F9" height="17.6094" style="stroke:none;stroke-width:1.0;" width="36.875" x="3095.125" y="1277.4922"/><text fill="#000000" font-family="sans-serif" font-size="14" lengthAdjust="spacing" textLength="4" x="3095.125" y="1292.0254">&#160;</text><text fill="#000000" font-family="sans-serif" font-size="14" lengthAdjust="spacing" textLength="140" x="3136" y="1292.0254">&#28436;&#31034;&#20837;&#21475;&#25110;&#31354;&#22771;&#36866;&#37197;&#23618;</text><rect fill="#FFE9A8" height="17.6094" style="stroke:none;stroke-width:1.0;" width="36.875" x="3095.125" y="1295.1016"/><text fill="#000000" font-family="sans-serif" font-size="14" lengthAdjust="spacing" textLength="4" x="3095.125" y="1309.6348">&#160;</text><text fill="#000000" font-family="sans-serif" font-size="14" lengthAdjust="spacing" textLength="224" x="3136" y="1309.6348">&#35770;&#25991;&#23450;&#20041;&#30340;&#30446;&#26631;&#27169;&#22359;&#65292;&#24453;&#24037;&#31243;&#21270;&#34917;&#20840;</text><rect fill="#E5E7EB" height="17.6094" style="stroke:none;stroke-width:1.0;" width="36.875" x="3095.125" y="1312.7109"/><text fill="#000000" font-family="sans-serif" font-size="14" lengthAdjust="spacing" textLength="4" x="3095.125" y="1327.2441">&#160;</text><text fill="#000000" font-family="sans-serif" font-size="14" lengthAdjust="spacing" textLength="98" x="3136" y="1327.2441">&#31532;&#19977;&#26041;&#22522;&#30784;&#20381;&#36182;</text><line style="stroke:#000000;stroke-width:1.0;" x1="3095.125" x2="3364" y1="1224.6641" y2="1224.6641"/><line style="stroke:#000000;stroke-width:1.0;" x1="3095.125" x2="3364" y1="1242.2734" y2="1242.2734"/><line style="stroke:#000000;stroke-width:1.0;" x1="3095.125" x2="3364" y1="1259.8828" y2="1259.8828"/><line style="stroke:#000000;stroke-width:1.0;" x1="3095.125" x2="3364" y1="1277.4922" y2="1277.4922"/><line style="stroke:#000000;stroke-width:1.0;" x1="3095.125" x2="3364" y1="1295.1016" y2="1295.1016"/><line style="stroke:#000000;stroke-width:1.0;" x1="3095.125" x2="3364" y1="1312.7109" y2="1312.7109"/><line style="stroke:#000000;stroke-width:1.0;" x1="3095.125" x2="3364" y1="1330.3203" y2="1330.3203"/><line style="stroke:#000000;stroke-width:1.0;" x1="3095.125" x2="3095.125" y1="1224.6641" y2="1330.3203"/><line style="stroke:#000000;stroke-width:1.0;" x1="3132" x2="3132" y1="1224.6641" y2="1330.3203"/><line style="stroke:#000000;stroke-width:1.0;" x1="3364" x2="3364" y1="1224.6641" y2="1330.3203"/><text fill="#000000" font-family="sans-serif" font-size="14" lengthAdjust="spacing" textLength="308" x="1536.5" y="1365.8535">&#22522;&#20110;&#35770;&#25991;&#35793;&#25991;&#19982;&#24403;&#21069;&#20179;&#24211;&#32467;&#26500;&#25972;&#29702;&#30340;&#39640;&#23618;&#35774;&#35745;&#24635;&#35272;</text><!--SRC=[dLTRJnjP4dxlNt54NcPcXRqG0mdQZGG4Zo9DDYX4cHSarDYDQT7kRhNROT1c97F7uM8J0eHhk2wN11i8uU8RFsPykjjF-GjRvvostTZnFgnaMTsdwrITglhggrEwg4i26kmCzWaQSgFEv-sTBr5eEAGBmNhbZQ2z4OKXpiUhkgZ827zAvLFpLY9bB4zPoGNupz_Cu-mYZixbquiujMYc5usjSMFfqenFcclZXSyVyVcebSXPYHqZahOEfpbE4lfrf2j84mC3ElABck0ZkZakD2ZAAg_nGTJ7-mO3cXAM_HsAf6XeQ43K1SVtq03lLuP4EO3wUIda_E8N-lcmfByI_j3R934W1mLPHpxu4pI7b0hw-O3GhG-3wyG-BmSafngV4bGL6RRL5cdJD6M87U-1fwMfgVbnjG7qRmwXTaNp2vej-V2Xfw6f2LQzYgpRQmqD3OyQMxW_VsJ__zOWAxfjlYAM3xnURylJvagrJprjVsyWAZZUfyD2dNKsPduuCfPl0HGTlps3_wT2KAb3V0Xry984yVJpEj_7XmIGpItYYGCpks1iPq2mIv660u2MRYMiqWtFP3MiLyXFfIXMDa3-fH22dA7dGcY0Yhy8wqIUAuKTrTduDB-cpVGdAjHD8KfTB4Qxhi65ZFa37Di3L1PM4eNTZsPcsPX_NuSUT7PwcxrUAeuSuQt3gG_W9fmUTlN88StdvbLL4dqymQGxo8koowUgFR8DyfkKaVbWxgVSU6uxdvsZ9sbJLOXgixV5-xXI-pFt2rI8Z1Ocvg0Cc7fHWPzhm5sXrZnEuRslB5elQgbZFk74BLuzWhWPqLkyFmwLvZo-Jz44Tv-YIBsgflH9Gh1aoqnV6k_sYzbfR6f6XVL979_6jrUWgJ0LGtrXKVA_qWGXzDFFz2ZjeAUBgG68FFLwEZsLPs9PDDFZrju48ODa1bBR8nkpKNmpXiy-6BDJ42yybJMMpipJzK8a2lOO00gRkyK861idXPLJSpv9pNR-eIgQJg3Q-RZj4LW4M3hItEX2PdeIJqzQTt5hPzPOkVgUcMQabBz96zz6pAEPxvbPd9l0rmVmZ6UNhPq3F77qFHEjAnP0DHIigHF85G74SQgmSibCzCXjRUtj4En1Vxqa3Wee1EZGuTYnKIionemYZwi193okHeRCS9zVV2E6266MNRYFEhhR7Bs5YA7V__KQvJFRnllJ7bbIVBm4VDEFL4K4oR-Xa12W9APhl0yOhyfoewkHslPGso-5VgAkXbbZvHYFR90iGGfsPg74SUe_FVAGeWqYg2PU8fJgHWAlISFrIhZQpIPc92phOb2ecP-7BeHZL_WqZiyZXR4Z0ph0uHu9_2DlcxVZ1pL8nL1xTnU2ve7JARiGfO2YYVf0qDqNKcqKCrI2O2qqhj_aK_jMDflFBX8_zzUit2tExbfx8pXwmlG612KewDgmsoU9gWekEtLtm5ejvIIoRaZNgzV8V7TbH4QO7QOroEi3RkX9Vb3OAuS9NRa6AXq13Rrs8bsCwtvdEoWgFHqTrK2vWYe179hdQU8FBIbMHg3xFZG0BFszYleJ6FcvAdCUspi-51BxXskcpWEbTP4pTn9u2lXj2KzE6Dit_ojrnG13OCpKdP7uHXxMB-6v8jZ51-0TPxn_jPThnHpVVeK0WD92DcvysO6IWUVyJPIjGwuhpAWIBmkzzunHErradHYhPOZm8J0wN5s0gC06ZYyGIdGZA1GylO8pCKUUoLzPztFsLajpI1A3Fj9K-dfaKVP9OR_WBg-vVx6rTCCIzAccpfREzggyDBbGuMJMIeuG4AnluIpfQTx7a9Js7oHbRWbFZ1dVPgpa4dE0zAtjwtnkXlcW2o4zL7IYbxwvVg67U4MU7OxyIMu4hD-Z-ledjDUr8YCMXyZZZPIncYG6xk9cOiLANaEbSxJNKrdeOwt8IgQXEnb7EtXhXeCLyi7PLLeHQntLROaZjgh52yVd-9tDAHpd_4PbWHfQKR6hfgth9CwDzyZ4_sGiVtDImYkmZFbvnYQexOLxYbok9_T871pUE34s3qXpcJyiDbiIyB0kaFP0mGKzatFk8beecy1sQ8RJapXwmL3Bo0ZuaVNpgbqsYSE-zKjZ-QmaMEeQrJjiHeOjbpaSMo3uZPuOMvjb8qMHQkSgwTzC7vhfqqBaFQ2iof8TuEapAvUpIJu-RsM_EAaUqW9I91ss_xpVtsrpbHiHrlrDuFkBbLyIBb51AsaVrhjHqX_lm8MF3d1mL6M5E80H2CVyd6GTbSMNNKou4kMHqpls4636bcr-fMHtNxH8p22Ps05uapRjfVJ_kfspCtHVZlLmbYGYnXK_LLXclQEmEcvkHc2QSZh7bSI8XsNEWasZjsxmqKrE-oa5vSsLlnBP8WUrmWW4mqvGb7axsimdhYX0X2dLj2AuOD3wv-vxRj- -mA6xJNDfbI3YBWqffiIxYpDZfTjRLTMKjXhdKp3l0JhiBDWVY0ob1PoA4LATNIuD3N0P0RhAfmxDw76HADWWGCGdLqi30ySnag9eBDjthdPtETu8O1ol9TYLbqgHTApPuU8uEaZfYegKVcVTSAopiW6NNJbXtWM6mBSNniVazymQnog8NICHU5E-z56WqANopGVU2AHOgoTlziMQzlg_8gESSyp6rnTcEeOJM-Ry6Pwuoj-S6XiHd5g2iy0fd1tyBxYbq78WZQDaZUWJP3-T4ib47Y0lT23dtluJ5NOthEW5WYSS_vo_ZQAttDj_s3tXoLjKSH1Z8yeEmiJOFOQ8qK_W332_CRtC1YQubkUpaonU-6ojTEstzzAf1_Qo8OinBUnbmr5fa2eQ8ZSO46QPm8arE2hnVZrXR4-HZhEvyiCfW6rdZHQscr- -m7q21bseAtCdaizjMj-MGGP2mWB3_HS0]--></g></svg>